<mxfile host="Electron" agent="Mozilla/5.0 (Windows NT 10.0; Win64; x64) AppleWebKit/537.36 (KHTML, like Gecko) draw.io/24.7.5 Chrome/126.0.6478.183 Electron/31.3.0 Safari/537.36" version="24.7.5">
  <diagram name="Page-1" id="gvA0fLdInKXx-Kjblphw">
    <mxGraphModel dx="1091" dy="658" grid="1" gridSize="10" guides="1" tooltips="1" connect="1" arrows="1" fold="1" page="1" pageScale="1" pageWidth="827" pageHeight="1169" math="1" shadow="0">
      <root>
        <mxCell id="0" />
        <mxCell id="1" parent="0" />
        <mxCell id="xpKJjLeKlfq3drGUEYHt-1" value="" style="group;flipH=0;fontSize=17;" parent="1" vertex="1" connectable="0">
          <mxGeometry x="72" y="100" width="683" height="110" as="geometry" />
        </mxCell>
        <mxCell id="xpKJjLeKlfq3drGUEYHt-2" value="&lt;font style=&quot;font-size: 16px;&quot;&gt;It is a branch of computer science by which we can create intelligent machines which can behave like a human, think like humans, and able to make decisions.&lt;br style=&quot;font-size: 16px;&quot;&gt;AI means&amp;nbsp;&quot;a man-made thinking power&quot;.&lt;br style=&quot;font-size: 16px;&quot;&gt;&lt;/font&gt;" style="rounded=1;whiteSpace=wrap;html=1;hachureGap=4;fontFamily=Mina;strokeWidth=2;fillColor=#ffcccc;strokeColor=#000000;fontSize=16;fontStyle=1;labelBorderColor=none;textShadow=0;labelBackgroundColor=none;align=left;spacing=7;verticalAlign=middle;" parent="xpKJjLeKlfq3drGUEYHt-1" vertex="1">
          <mxGeometry y="40" width="683" height="70" as="geometry" />
        </mxCell>
        <mxCell id="xpKJjLeKlfq3drGUEYHt-3" value="&lt;div&gt;AI Definition&lt;/div&gt;" style="rounded=1;whiteSpace=wrap;html=1;hachureGap=4;fontFamily=Mina;strokeWidth=2;fillColor=#e51400;strokeColor=#000000;fontSize=22;fontStyle=1;labelBorderColor=none;textShadow=0;labelBackgroundColor=none;align=center;spacing=5;verticalAlign=middle;spacingTop=3;spacingRight=2;fontColor=#ffffff;" parent="xpKJjLeKlfq3drGUEYHt-1" vertex="1">
          <mxGeometry x="31.77" width="138.23" height="40" as="geometry" />
        </mxCell>
        <mxCell id="xpKJjLeKlfq3drGUEYHt-4" value="" style="group;" parent="1" vertex="1" connectable="0">
          <mxGeometry x="72" y="240" width="684" height="270" as="geometry" />
        </mxCell>
        <mxCell id="xpKJjLeKlfq3drGUEYHt-5" value="Why AI?" style="rounded=1;whiteSpace=wrap;html=1;hachureGap=4;fontFamily=Mina;fontSource=https%3A%2F%2Ffonts.googleapis.com%2Fcss%3Ffamily%3DMina;strokeWidth=2;fillColor=#0050ef;strokeColor=#000000;fontSize=20;fontStyle=1;labelBorderColor=none;textShadow=0;labelBackgroundColor=none;verticalAlign=middle;spacingBottom=0;fontColor=#ffffff;" parent="xpKJjLeKlfq3drGUEYHt-4" vertex="1">
          <mxGeometry x="38" width="100" height="40" as="geometry" />
        </mxCell>
        <mxCell id="xpKJjLeKlfq3drGUEYHt-6" value="&lt;div style=&quot;&quot;&gt;&lt;font color=&quot;#ff3333&quot; style=&quot;font-size: 18px;&quot;&gt;With the help of AI ?&lt;/font&gt;&lt;/div&gt;&lt;div style=&quot;font-size: 15px;&quot;&gt;&lt;ul style=&quot;&quot;&gt;&lt;li style=&quot;&quot;&gt;&lt;font style=&quot;font-size: 15px;&quot;&gt;you can create such software or devices which can solve real-world problems very easily and with accuracy such as health issues, marketing, traffic issues, etc.&lt;br&gt;&lt;br&gt;&lt;/font&gt;&lt;/li&gt;&lt;li style=&quot;&quot;&gt;&lt;font style=&quot;font-size: 15px;&quot;&gt;you can create your personal virtual Assistant, such as Cortana, Google Assistant, Siri, etc.&lt;br&gt;&lt;br&gt;&lt;/font&gt;&lt;/li&gt;&lt;li style=&quot;&quot;&gt;&lt;font style=&quot;font-size: 15px;&quot;&gt;you can build such Robots which can work in an environment where survival of humans can be at risk.&lt;/font&gt;&lt;/li&gt;&lt;/ul&gt;&lt;/div&gt;&lt;div style=&quot;font-size: 15px;&quot;&gt;&lt;font style=&quot;font-size: 15px;&quot;&gt;AI opens a path for other new technologies, new devices, and new Opportunities.&lt;/font&gt;&lt;/div&gt;" style="rounded=1;whiteSpace=wrap;html=1;hachureGap=4;fontFamily=Mina;strokeWidth=2;fillColor=#dae8fc;strokeColor=#000000;fontSize=16;fontStyle=1;labelBorderColor=none;textShadow=0;labelBackgroundColor=none;align=left;spacing=7;verticalAlign=top;spacingLeft=5;fontSource=https%3A%2F%2Ffonts.googleapis.com%2Fcss%3Ffamily%3DMina;spacingTop=5;arcSize=11;" parent="xpKJjLeKlfq3drGUEYHt-4" vertex="1">
          <mxGeometry y="40" width="684" height="230" as="geometry" />
        </mxCell>
        <mxCell id="xpKJjLeKlfq3drGUEYHt-117" value="AI" style="shape=hexagon;perimeter=hexagonPerimeter2;whiteSpace=wrap;fixedSize=1;size=16;fillColor=#e1d5e7;strokeColor=#000000;fontFamily=ADLaM Display;fontSize=20;strokeWidth=2;align=center;spacingLeft=0;spacingBottom=5;fillStyle=hachure;fontStyle=1;fontSource=https%3A%2F%2Ffonts.googleapis.com%2Fcss%3Ffamily%3DADLaM%2BDisplay;" parent="1" vertex="1">
          <mxGeometry x="304" y="20" width="220.68" height="57.14" as="geometry" />
        </mxCell>
        <mxCell id="xpKJjLeKlfq3drGUEYHt-128" value="" style="group" parent="1" vertex="1" connectable="0">
          <mxGeometry x="79" y="530" width="670" height="617" as="geometry" />
        </mxCell>
        <mxCell id="xpKJjLeKlfq3drGUEYHt-8" value="" style="rounded=1;whiteSpace=wrap;html=1;hachureGap=4;fontFamily=Mina;fontSource=https%3A%2F%2Ffonts.googleapis.com%2Fcss%3Ffamily%3DMina;fillColor=none;arcSize=4;container=0;strokeWidth=2;strokeColor=#000000;" parent="xpKJjLeKlfq3drGUEYHt-128" vertex="1">
          <mxGeometry y="40" width="670" height="560" as="geometry" />
        </mxCell>
        <mxCell id="xpKJjLeKlfq3drGUEYHt-9" value="&lt;div&gt;Advantages of AI?&amp;nbsp;&lt;/div&gt;" style="rounded=1;whiteSpace=wrap;html=1;hachureGap=4;fontFamily=Mina;fontSource=https%3A%2F%2Ffonts.googleapis.com%2Fcss%3Ffamily%3DMina;strokeWidth=2;fillColor=#008a00;strokeColor=#000000;fontSize=23;fontStyle=1;labelBorderColor=none;textShadow=0;labelBackgroundColor=none;arcSize=20;container=0;fontColor=#ffffff;" parent="xpKJjLeKlfq3drGUEYHt-128" vertex="1">
          <mxGeometry x="30" width="240" height="40" as="geometry" />
        </mxCell>
        <mxCell id="xpKJjLeKlfq3drGUEYHt-122" value="" style="group" parent="xpKJjLeKlfq3drGUEYHt-128" vertex="1" connectable="0">
          <mxGeometry x="21" y="60" width="420" height="60" as="geometry" />
        </mxCell>
        <mxCell id="xpKJjLeKlfq3drGUEYHt-10" value="High Accuracy with less errors" style="rounded=1;whiteSpace=wrap;html=1;hachureGap=4;fontFamily=Mina;fontSource=https%3A%2F%2Ffonts.googleapis.com%2Fcss%3Ffamily%3DMina;strokeWidth=2;fillColor=#008a00;strokeColor=#000000;fontSize=20;fontStyle=1;labelBorderColor=none;textShadow=0;labelBackgroundColor=none;verticalAlign=bottom;spacingBottom=0;arcSize=27;container=0;fontColor=#ffffff;" parent="xpKJjLeKlfq3drGUEYHt-122" vertex="1">
          <mxGeometry x="40" width="299" height="30" as="geometry" />
        </mxCell>
        <mxCell id="xpKJjLeKlfq3drGUEYHt-11" value="1" style="rounded=1;whiteSpace=wrap;html=1;hachureGap=4;fontFamily=Mina;fontSource=https%3A%2F%2Ffonts.googleapis.com%2Fcss%3Ffamily%3DMina;strokeWidth=2;fillColor=#008a00;strokeColor=#000000;fontSize=20;fontStyle=1;labelBorderColor=none;textShadow=0;labelBackgroundColor=none;arcSize=24;container=0;fontColor=#ffffff;" parent="xpKJjLeKlfq3drGUEYHt-122" vertex="1">
          <mxGeometry x="9" width="30" height="30" as="geometry" />
        </mxCell>
        <mxCell id="xpKJjLeKlfq3drGUEYHt-19" value="It takes decisions as per pre-experience or information." style="rounded=1;whiteSpace=wrap;html=1;hachureGap=4;fontFamily=Mina;fontSource=https%3A%2F%2Ffonts.googleapis.com%2Fcss%3Ffamily%3DMina;strokeWidth=2;fillColor=#cdeb8b;strokeColor=#000000;fontSize=16;fontStyle=1;labelBorderColor=none;textShadow=0;labelBackgroundColor=none;align=left;spacing=7;verticalAlign=middle;container=0;" parent="xpKJjLeKlfq3drGUEYHt-122" vertex="1">
          <mxGeometry y="30" width="420" height="30" as="geometry" />
        </mxCell>
        <mxCell id="xpKJjLeKlfq3drGUEYHt-123" value="" style="group;flipH=1;" parent="xpKJjLeKlfq3drGUEYHt-128" vertex="1" connectable="0">
          <mxGeometry x="20" y="120" width="630" height="83" as="geometry" />
        </mxCell>
        <mxCell id="xpKJjLeKlfq3drGUEYHt-12" value="High-Speed" style="rounded=1;whiteSpace=wrap;html=1;hachureGap=4;fontFamily=Mina;fontSource=https%3A%2F%2Ffonts.googleapis.com%2Fcss%3Ffamily%3DMina;strokeWidth=2;fillColor=#008a00;strokeColor=#000000;fontSize=20;fontStyle=1;labelBorderColor=none;textShadow=0;labelBackgroundColor=none;container=0;fontColor=#ffffff;spacingBottom=0;" parent="xpKJjLeKlfq3drGUEYHt-123" vertex="1">
          <mxGeometry x="460" width="129" height="31.125000000000004" as="geometry" />
        </mxCell>
        <mxCell id="xpKJjLeKlfq3drGUEYHt-13" value="2" style="rounded=1;whiteSpace=wrap;html=1;hachureGap=4;fontFamily=Mina;fontSource=https%3A%2F%2Ffonts.googleapis.com%2Fcss%3Ffamily%3DMina;strokeWidth=2;fillColor=#008a00;strokeColor=#000000;fontSize=20;fontStyle=1;labelBorderColor=none;textShadow=0;labelBackgroundColor=none;arcSize=27;container=0;fontColor=#ffffff;spacingBottom=0;" parent="xpKJjLeKlfq3drGUEYHt-123" vertex="1">
          <mxGeometry x="589" width="30" height="31.125000000000004" as="geometry" />
        </mxCell>
        <mxCell id="xpKJjLeKlfq3drGUEYHt-20" value="Very high-speed and fast-decision making can beat a chess champion in the Chess game." style="rounded=1;whiteSpace=wrap;html=1;hachureGap=4;fontFamily=Mina;fontSource=https%3A%2F%2Ffonts.googleapis.com%2Fcss%3Ffamily%3DMina;strokeWidth=2;fillColor=#cdeb8b;strokeColor=#000000;fontSize=16;fontStyle=1;labelBorderColor=none;textShadow=0;labelBackgroundColor=none;align=left;spacing=7;verticalAlign=middle;container=0;" parent="xpKJjLeKlfq3drGUEYHt-123" vertex="1">
          <mxGeometry y="31.125000000000004" width="630" height="51.87500000000001" as="geometry" />
        </mxCell>
        <mxCell id="xpKJjLeKlfq3drGUEYHt-124" value="" style="group;flipV=0;flipH=1;" parent="xpKJjLeKlfq3drGUEYHt-128" vertex="1" connectable="0">
          <mxGeometry x="160" y="290" width="490" height="60" as="geometry" />
        </mxCell>
        <mxCell id="xpKJjLeKlfq3drGUEYHt-14" value="High reliability" style="rounded=1;whiteSpace=wrap;html=1;hachureGap=4;fontFamily=Mina;fontSource=https%3A%2F%2Ffonts.googleapis.com%2Fcss%3Ffamily%3DMina;strokeWidth=2;fillColor=#008a00;strokeColor=#000000;fontSize=20;fontStyle=1;labelBorderColor=none;textShadow=0;labelBackgroundColor=none;container=0;fontColor=#ffffff;spacingBottom=0;" parent="xpKJjLeKlfq3drGUEYHt-124" vertex="1">
          <mxGeometry x="300" width="150" height="30" as="geometry" />
        </mxCell>
        <mxCell id="xpKJjLeKlfq3drGUEYHt-15" value="4" style="rounded=1;whiteSpace=wrap;html=1;hachureGap=4;fontFamily=Mina;fontSource=https%3A%2F%2Ffonts.googleapis.com%2Fcss%3Ffamily%3DMina;strokeWidth=2;fillColor=#008a00;strokeColor=#000000;fontSize=20;fontStyle=1;labelBorderColor=none;textShadow=0;labelBackgroundColor=none;arcSize=24;container=0;fontColor=#ffffff;spacingBottom=0;" parent="xpKJjLeKlfq3drGUEYHt-124" vertex="1">
          <mxGeometry x="450" width="30" height="30" as="geometry" />
        </mxCell>
        <mxCell id="xpKJjLeKlfq3drGUEYHt-18" value="Can perform the same action multiple times with high accuracy." style="rounded=1;whiteSpace=wrap;html=1;hachureGap=4;fontFamily=Mina;fontSource=https%3A%2F%2Ffonts.googleapis.com%2Fcss%3Ffamily%3DMina;strokeWidth=2;fillColor=#cdeb8b;strokeColor=#000000;fontSize=16;fontStyle=1;labelBorderColor=none;textShadow=0;labelBackgroundColor=none;align=left;spacing=7;verticalAlign=middle;container=0;" parent="xpKJjLeKlfq3drGUEYHt-124" vertex="1">
          <mxGeometry y="30" width="490" height="30" as="geometry" />
        </mxCell>
        <mxCell id="xpKJjLeKlfq3drGUEYHt-125" value="" style="group" parent="xpKJjLeKlfq3drGUEYHt-128" vertex="1" connectable="0">
          <mxGeometry x="20" y="230" width="400" height="60" as="geometry" />
        </mxCell>
        <mxCell id="xpKJjLeKlfq3drGUEYHt-23" value="Useful for risky areas" style="rounded=1;whiteSpace=wrap;html=1;hachureGap=4;fontFamily=Mina;fontSource=https%3A%2F%2Ffonts.googleapis.com%2Fcss%3Ffamily%3DMina;strokeWidth=2;fillColor=#008a00;strokeColor=#000000;fontSize=20;fontStyle=1;labelBorderColor=none;textShadow=0;labelBackgroundColor=none;container=0;fontColor=#ffffff;spacingBottom=0;" parent="xpKJjLeKlfq3drGUEYHt-125" vertex="1">
          <mxGeometry x="41" width="229" height="30" as="geometry" />
        </mxCell>
        <mxCell id="xpKJjLeKlfq3drGUEYHt-24" value="3" style="rounded=1;whiteSpace=wrap;html=1;hachureGap=4;fontFamily=Mina;fontSource=https%3A%2F%2Ffonts.googleapis.com%2Fcss%3Ffamily%3DMina;strokeWidth=2;fillColor=#008a00;strokeColor=#000000;fontSize=20;fontStyle=1;labelBorderColor=none;textShadow=0;labelBackgroundColor=none;arcSize=24;container=0;fontColor=#ffffff;spacingBottom=0;" parent="xpKJjLeKlfq3drGUEYHt-125" vertex="1">
          <mxGeometry x="10" width="30" height="30" as="geometry" />
        </mxCell>
        <mxCell id="xpKJjLeKlfq3drGUEYHt-25" value="Such as defusing a bomb, exploring the ocean floor." style="rounded=1;whiteSpace=wrap;html=1;hachureGap=4;fontFamily=Mina;fontSource=https%3A%2F%2Ffonts.googleapis.com%2Fcss%3Ffamily%3DMina;strokeWidth=2;fillColor=#cdeb8b;strokeColor=#000000;fontSize=16;fontStyle=1;labelBorderColor=none;textShadow=0;labelBackgroundColor=none;align=left;spacing=7;verticalAlign=middle;container=0;" parent="xpKJjLeKlfq3drGUEYHt-125" vertex="1">
          <mxGeometry y="30" width="400" height="30" as="geometry" />
        </mxCell>
        <mxCell id="xpKJjLeKlfq3drGUEYHt-126" value="" style="group" parent="xpKJjLeKlfq3drGUEYHt-128" vertex="1" connectable="0">
          <mxGeometry x="20" y="380" width="630" height="80" as="geometry" />
        </mxCell>
        <mxCell id="xpKJjLeKlfq3drGUEYHt-16" value="Digital Assistant" style="rounded=1;whiteSpace=wrap;html=1;hachureGap=4;fontFamily=Mina;fontSource=https%3A%2F%2Ffonts.googleapis.com%2Fcss%3Ffamily%3DMina;strokeWidth=2;fillColor=#008a00;strokeColor=#000000;fontSize=20;fontStyle=1;labelBorderColor=none;textShadow=0;labelBackgroundColor=none;container=0;fontColor=#ffffff;spacingBottom=0;" parent="xpKJjLeKlfq3drGUEYHt-126" vertex="1">
          <mxGeometry x="40" width="160" height="30" as="geometry" />
        </mxCell>
        <mxCell id="xpKJjLeKlfq3drGUEYHt-17" value="5" style="rounded=1;whiteSpace=wrap;html=1;hachureGap=4;fontFamily=Mina;fontSource=https%3A%2F%2Ffonts.googleapis.com%2Fcss%3Ffamily%3DMina;strokeWidth=2;fillColor=#008a00;strokeColor=#000000;fontSize=20;fontStyle=1;labelBorderColor=none;textShadow=0;labelBackgroundColor=none;arcSize=29;container=0;fontColor=#ffffff;spacingBottom=0;" parent="xpKJjLeKlfq3drGUEYHt-126" vertex="1">
          <mxGeometry x="10" width="30" height="30" as="geometry" />
        </mxCell>
        <mxCell id="xpKJjLeKlfq3drGUEYHt-21" value="Used by various E-commerce websites to show the products as per customer requirement." style="rounded=1;whiteSpace=wrap;html=1;hachureGap=4;fontFamily=Mina;fontSource=https%3A%2F%2Ffonts.googleapis.com%2Fcss%3Ffamily%3DMina;strokeWidth=2;fillColor=#cdeb8b;strokeColor=#000000;fontSize=16;fontStyle=1;labelBorderColor=none;textShadow=0;labelBackgroundColor=none;align=left;spacing=7;verticalAlign=middle;container=0;" parent="xpKJjLeKlfq3drGUEYHt-126" vertex="1">
          <mxGeometry y="30" width="630" height="50" as="geometry" />
        </mxCell>
        <mxCell id="xpKJjLeKlfq3drGUEYHt-127" value="" style="group;flipV=0;flipH=1;" parent="xpKJjLeKlfq3drGUEYHt-128" vertex="1" connectable="0">
          <mxGeometry x="110" y="490" width="550" height="80" as="geometry" />
        </mxCell>
        <mxCell id="xpKJjLeKlfq3drGUEYHt-27" value="Useful as a public utility" style="rounded=1;whiteSpace=wrap;html=1;hachureGap=4;fontFamily=Mina;fontSource=https%3A%2F%2Ffonts.googleapis.com%2Fcss%3Ffamily%3DMina;strokeWidth=2;fillColor=#008a00;strokeColor=#000000;fontSize=20;fontStyle=1;labelBorderColor=none;textShadow=0;labelBackgroundColor=none;container=0;fontColor=#ffffff;spacingBottom=0;" parent="xpKJjLeKlfq3drGUEYHt-127" vertex="1">
          <mxGeometry x="270" width="240" height="30" as="geometry" />
        </mxCell>
        <mxCell id="xpKJjLeKlfq3drGUEYHt-28" value="6" style="rounded=1;whiteSpace=wrap;html=1;hachureGap=4;fontFamily=Mina;fontSource=https%3A%2F%2Ffonts.googleapis.com%2Fcss%3Ffamily%3DMina;strokeWidth=2;fillColor=#008a00;strokeColor=#000000;fontSize=20;fontStyle=1;labelBorderColor=none;textShadow=0;labelBackgroundColor=none;arcSize=24;container=0;fontColor=#ffffff;spacingBottom=0;" parent="xpKJjLeKlfq3drGUEYHt-127" vertex="1">
          <mxGeometry x="510" width="30" height="30" as="geometry" />
        </mxCell>
        <mxCell id="xpKJjLeKlfq3drGUEYHt-29" value="Such as a self-driving car, facial recognition for security purpose, NLP to communicate with the human in human-language" style="rounded=1;whiteSpace=wrap;html=1;hachureGap=4;fontFamily=Mina;fontSource=https%3A%2F%2Ffonts.googleapis.com%2Fcss%3Ffamily%3DMina;strokeWidth=2;fillColor=#cdeb8b;strokeColor=#000000;fontSize=16;fontStyle=1;labelBorderColor=none;textShadow=0;labelBackgroundColor=none;align=left;spacing=7;verticalAlign=middle;container=0;" parent="xpKJjLeKlfq3drGUEYHt-127" vertex="1">
          <mxGeometry y="30" width="550" height="50" as="geometry" />
        </mxCell>
        <mxCell id="xpKJjLeKlfq3drGUEYHt-116" value="&lt;div&gt;What Comprises to AI?&lt;/div&gt;" style="rounded=1;whiteSpace=wrap;html=1;hachureGap=4;fontFamily=Mina;strokeWidth=2;fillColor=#e51400;strokeColor=#000000;fontSize=22;fontStyle=1;labelBorderColor=none;textShadow=0;labelBackgroundColor=none;align=center;spacing=5;verticalAlign=middle;spacingTop=3;spacingRight=2;fontColor=#ffffff;" parent="1" vertex="1">
          <mxGeometry x="293.94" y="1658" width="244.11" height="45" as="geometry" />
        </mxCell>
        <mxCell id="xpKJjLeKlfq3drGUEYHt-113" value="&lt;div style=&quot;font-size: 16px;&quot;&gt;Combination of Reasoning, learning, problem-solving perception,&amp;nbsp;&lt;span style=&quot;background-color: initial; font-size: 16px;&quot;&gt;language understanding, etc. To achieve these factors it requires&lt;/span&gt;&lt;/div&gt;" style="rounded=1;whiteSpace=wrap;html=1;hachureGap=4;fontFamily=Mina;strokeWidth=2;fillColor=#ffcccc;strokeColor=#000000;fontSize=16;fontStyle=1;labelBorderColor=none;textShadow=0;labelBackgroundColor=none;align=left;spacing=7;verticalAlign=middle;" parent="1" vertex="1">
          <mxGeometry x="132" y="1703" width="568" height="59" as="geometry" />
        </mxCell>
        <mxCell id="xpKJjLeKlfq3drGUEYHt-140" value="" style="group" parent="1" vertex="1" connectable="0">
          <mxGeometry x="79" y="1190" width="670" height="440" as="geometry" />
        </mxCell>
        <mxCell id="xpKJjLeKlfq3drGUEYHt-31" value="" style="rounded=1;whiteSpace=wrap;html=1;hachureGap=4;fontFamily=Mina;fontSource=https%3A%2F%2Ffonts.googleapis.com%2Fcss%3Ffamily%3DMina;fillColor=none;arcSize=9;container=0;strokeWidth=2;strokeColor=#000000;" parent="xpKJjLeKlfq3drGUEYHt-140" vertex="1">
          <mxGeometry y="40" width="670" height="400" as="geometry" />
        </mxCell>
        <mxCell id="xpKJjLeKlfq3drGUEYHt-32" value="&lt;div&gt;Disadvantages&amp;nbsp;of AI?&amp;nbsp;&lt;/div&gt;" style="rounded=1;whiteSpace=wrap;html=1;hachureGap=4;fontFamily=Mina;fontSource=https%3A%2F%2Ffonts.googleapis.com%2Fcss%3Ffamily%3DMina;strokeWidth=2;fillColor=#a0522d;strokeColor=#000000;fontSize=23;fontStyle=1;labelBorderColor=none;textShadow=0;labelBackgroundColor=none;arcSize=21;container=0;fontColor=#ffffff;" parent="xpKJjLeKlfq3drGUEYHt-140" vertex="1">
          <mxGeometry x="30" width="250" height="40" as="geometry" />
        </mxCell>
        <mxCell id="xpKJjLeKlfq3drGUEYHt-135" value="" style="group;flipH=1;" parent="xpKJjLeKlfq3drGUEYHt-140" vertex="1" connectable="0">
          <mxGeometry x="14" y="120" width="641" height="60" as="geometry" />
        </mxCell>
        <mxCell id="xpKJjLeKlfq3drGUEYHt-35" value="Can&#39;t think out of the box" style="rounded=1;whiteSpace=wrap;html=1;hachureGap=4;fontFamily=Mina;fontSource=https%3A%2F%2Ffonts.googleapis.com%2Fcss%3Ffamily%3DMina;strokeWidth=2;fillColor=#a0522d;strokeColor=#000000;fontSize=20;fontStyle=1;labelBorderColor=none;textShadow=0;labelBackgroundColor=none;container=0;fontColor=#ffffff;spacingBottom=0;" parent="xpKJjLeKlfq3drGUEYHt-135" vertex="1">
          <mxGeometry x="341" width="259" height="30" as="geometry" />
        </mxCell>
        <mxCell id="xpKJjLeKlfq3drGUEYHt-36" value="2" style="rounded=1;whiteSpace=wrap;html=1;hachureGap=4;fontFamily=Mina;fontSource=https%3A%2F%2Ffonts.googleapis.com%2Fcss%3Ffamily%3DMina;strokeWidth=2;fillColor=#a0522d;strokeColor=#000000;fontSize=20;fontStyle=1;labelBorderColor=none;textShadow=0;labelBackgroundColor=none;arcSize=30;container=0;fontColor=#ffffff;spacingBottom=0;" parent="xpKJjLeKlfq3drGUEYHt-135" vertex="1">
          <mxGeometry x="600" width="30" height="30" as="geometry" />
        </mxCell>
        <mxCell id="xpKJjLeKlfq3drGUEYHt-43" value="Such as the robot will only do that work for which they are trained, or programmed." style="rounded=1;whiteSpace=wrap;html=1;hachureGap=4;fontFamily=Mina;fontSource=https%3A%2F%2Ffonts.googleapis.com%2Fcss%3Ffamily%3DMina;strokeWidth=2;fillColor=#ffcc99;strokeColor=#000000;fontSize=16;fontStyle=1;labelBorderColor=none;textShadow=0;labelBackgroundColor=none;align=left;spacing=7;verticalAlign=middle;container=0;" parent="xpKJjLeKlfq3drGUEYHt-135" vertex="1">
          <mxGeometry y="30" width="641" height="30" as="geometry" />
        </mxCell>
        <mxCell id="xpKJjLeKlfq3drGUEYHt-136" value="" style="group" parent="xpKJjLeKlfq3drGUEYHt-140" vertex="1" connectable="0">
          <mxGeometry x="20" y="210" width="511" height="60" as="geometry" />
        </mxCell>
        <mxCell id="xpKJjLeKlfq3drGUEYHt-37" value="No feelings and emotions" style="rounded=1;whiteSpace=wrap;html=1;hachureGap=4;fontFamily=Mina;fontSource=https%3A%2F%2Ffonts.googleapis.com%2Fcss%3Ffamily%3DMina;strokeWidth=2;fillColor=#a0522d;strokeColor=#000000;fontSize=20;fontStyle=1;labelBorderColor=none;textShadow=0;labelBackgroundColor=none;container=0;fontColor=#ffffff;spacingBottom=0;" parent="xpKJjLeKlfq3drGUEYHt-136" vertex="1">
          <mxGeometry x="40" width="240" height="30" as="geometry" />
        </mxCell>
        <mxCell id="xpKJjLeKlfq3drGUEYHt-38" value="3" style="rounded=1;whiteSpace=wrap;html=1;hachureGap=4;fontFamily=Mina;fontSource=https%3A%2F%2Ffonts.googleapis.com%2Fcss%3Ffamily%3DMina;strokeWidth=2;fillColor=#a0522d;strokeColor=#000000;fontSize=20;fontStyle=1;labelBorderColor=none;textShadow=0;labelBackgroundColor=none;arcSize=32;container=0;fontColor=#ffffff;spacingBottom=0;" parent="xpKJjLeKlfq3drGUEYHt-136" vertex="1">
          <mxGeometry x="10" width="30" height="30" as="geometry" />
        </mxCell>
        <mxCell id="xpKJjLeKlfq3drGUEYHt-41" value="May sometime be harmful for users if the proper care is not taken." style="rounded=1;whiteSpace=wrap;html=1;hachureGap=4;fontFamily=Mina;fontSource=https%3A%2F%2Ffonts.googleapis.com%2Fcss%3Ffamily%3DMina;strokeWidth=2;fillColor=#ffcc99;strokeColor=#000000;fontSize=16;fontStyle=1;labelBorderColor=none;textShadow=0;labelBackgroundColor=none;align=left;spacing=7;verticalAlign=middle;container=0;" parent="xpKJjLeKlfq3drGUEYHt-136" vertex="1">
          <mxGeometry y="30" width="511" height="30" as="geometry" />
        </mxCell>
        <mxCell id="xpKJjLeKlfq3drGUEYHt-137" value="" style="group;flipH=1;" parent="xpKJjLeKlfq3drGUEYHt-140" vertex="1" connectable="0">
          <mxGeometry x="261" y="300" width="390" height="60" as="geometry" />
        </mxCell>
        <mxCell id="xpKJjLeKlfq3drGUEYHt-46" value="Increase dependency on machines" style="rounded=1;whiteSpace=wrap;html=1;hachureGap=4;fontFamily=Mina;fontSource=https%3A%2F%2Ffonts.googleapis.com%2Fcss%3Ffamily%3DMina;strokeWidth=2;fillColor=#a0522d;strokeColor=#000000;fontSize=20;fontStyle=1;labelBorderColor=none;textShadow=0;labelBackgroundColor=none;container=0;fontColor=#ffffff;spacingBottom=0;flipH=0;" parent="xpKJjLeKlfq3drGUEYHt-137" vertex="1">
          <mxGeometry x="20" width="329" height="30" as="geometry" />
        </mxCell>
        <mxCell id="xpKJjLeKlfq3drGUEYHt-47" value="4" style="rounded=1;whiteSpace=wrap;html=1;hachureGap=4;fontFamily=Mina;fontSource=https%3A%2F%2Ffonts.googleapis.com%2Fcss%3Ffamily%3DMina;strokeWidth=2;fillColor=#a0522d;strokeColor=#000000;fontSize=20;fontStyle=1;labelBorderColor=none;textShadow=0;labelBackgroundColor=none;arcSize=32;container=0;fontColor=#ffffff;spacingBottom=0;flipH=0;" parent="xpKJjLeKlfq3drGUEYHt-137" vertex="1">
          <mxGeometry x="350" width="30" height="30" as="geometry" />
        </mxCell>
        <mxCell id="xpKJjLeKlfq3drGUEYHt-48" value="Losing their mental capabilities." style="rounded=1;whiteSpace=wrap;html=1;hachureGap=4;fontFamily=Mina;fontSource=https%3A%2F%2Ffonts.googleapis.com%2Fcss%3Ffamily%3DMina;strokeWidth=2;fillColor=#ffcc99;strokeColor=#000000;fontSize=16;fontStyle=1;labelBorderColor=none;textShadow=0;labelBackgroundColor=none;align=left;spacing=7;verticalAlign=middle;container=0;flipH=0;" parent="xpKJjLeKlfq3drGUEYHt-137" vertex="1">
          <mxGeometry x="140" y="30" width="250" height="30" as="geometry" />
        </mxCell>
        <mxCell id="xpKJjLeKlfq3drGUEYHt-138" value="" style="group" parent="xpKJjLeKlfq3drGUEYHt-140" vertex="1" connectable="0">
          <mxGeometry x="20" y="350" width="351" height="60" as="geometry" />
        </mxCell>
        <mxCell id="xpKJjLeKlfq3drGUEYHt-39" value="No Original Creativity." style="rounded=1;whiteSpace=wrap;html=1;hachureGap=4;fontFamily=Mina;fontSource=https%3A%2F%2Ffonts.googleapis.com%2Fcss%3Ffamily%3DMina;strokeWidth=2;fillColor=#a0522d;strokeColor=#000000;fontSize=20;fontStyle=1;labelBorderColor=none;textShadow=0;labelBackgroundColor=none;container=0;fontColor=#ffffff;spacingBottom=0;" parent="xpKJjLeKlfq3drGUEYHt-138" vertex="1">
          <mxGeometry x="40" width="210" height="30" as="geometry" />
        </mxCell>
        <mxCell id="xpKJjLeKlfq3drGUEYHt-40" value="5" style="rounded=1;whiteSpace=wrap;html=1;hachureGap=4;fontFamily=Mina;fontSource=https%3A%2F%2Ffonts.googleapis.com%2Fcss%3Ffamily%3DMina;strokeWidth=2;fillColor=#a0522d;strokeColor=#000000;fontSize=20;fontStyle=1;labelBorderColor=none;textShadow=0;labelBackgroundColor=none;arcSize=29;container=0;fontColor=#ffffff;spacingBottom=0;" parent="xpKJjLeKlfq3drGUEYHt-138" vertex="1">
          <mxGeometry x="10" width="30" height="30" as="geometry" />
        </mxCell>
        <mxCell id="xpKJjLeKlfq3drGUEYHt-44" value="Cannot beat this power of human intelligence" style="rounded=1;whiteSpace=wrap;html=1;hachureGap=4;fontFamily=Mina;fontSource=https%3A%2F%2Ffonts.googleapis.com%2Fcss%3Ffamily%3DMina;strokeWidth=2;fillColor=#ffcc99;strokeColor=#000000;fontSize=16;fontStyle=1;labelBorderColor=none;textShadow=0;labelBackgroundColor=none;align=left;spacing=7;verticalAlign=middle;container=0;" parent="xpKJjLeKlfq3drGUEYHt-138" vertex="1">
          <mxGeometry y="30" width="351" height="30" as="geometry" />
        </mxCell>
        <mxCell id="xpKJjLeKlfq3drGUEYHt-139" value="" style="group" parent="xpKJjLeKlfq3drGUEYHt-140" vertex="1" connectable="0">
          <mxGeometry x="21" y="60" width="230" height="60" as="geometry" />
        </mxCell>
        <mxCell id="xpKJjLeKlfq3drGUEYHt-33" value="High Cost" style="rounded=1;whiteSpace=wrap;html=1;hachureGap=4;fontFamily=Mina;fontSource=https%3A%2F%2Ffonts.googleapis.com%2Fcss%3Ffamily%3DMina;strokeWidth=2;fillColor=#a0522d;strokeColor=#000000;fontSize=20;fontStyle=1;labelBorderColor=none;textShadow=0;labelBackgroundColor=none;verticalAlign=bottom;spacingBottom=0;arcSize=27;container=0;fontColor=#ffffff;" parent="xpKJjLeKlfq3drGUEYHt-139" vertex="1">
          <mxGeometry x="40" width="119" height="30" as="geometry" />
        </mxCell>
        <mxCell id="xpKJjLeKlfq3drGUEYHt-34" value="1" style="rounded=1;whiteSpace=wrap;html=1;hachureGap=4;fontFamily=Mina;fontSource=https%3A%2F%2Ffonts.googleapis.com%2Fcss%3Ffamily%3DMina;strokeWidth=2;fillColor=#a0522d;strokeColor=#000000;fontSize=20;fontStyle=1;labelBorderColor=none;textShadow=0;labelBackgroundColor=none;arcSize=24;container=0;fontColor=#ffffff;spacingBottom=0;" parent="xpKJjLeKlfq3drGUEYHt-139" vertex="1">
          <mxGeometry x="9" width="30" height="30" as="geometry" />
        </mxCell>
        <mxCell id="xpKJjLeKlfq3drGUEYHt-42" value="Requires lots of maintenance." style="rounded=1;whiteSpace=wrap;html=1;hachureGap=4;fontFamily=Mina;fontSource=https%3A%2F%2Ffonts.googleapis.com%2Fcss%3Ffamily%3DMina;strokeWidth=2;fillColor=#ffcc99;strokeColor=#000000;fontSize=16;fontStyle=1;labelBorderColor=none;textShadow=0;labelBackgroundColor=none;align=left;spacing=7;verticalAlign=middle;container=0;" parent="xpKJjLeKlfq3drGUEYHt-139" vertex="1">
          <mxGeometry y="30" width="230" height="30" as="geometry" />
        </mxCell>
        <mxCell id="xpKJjLeKlfq3drGUEYHt-141" value="" style="group" parent="1" vertex="1" connectable="0">
          <mxGeometry x="110" y="1763" width="608" height="142" as="geometry" />
        </mxCell>
        <mxCell id="xpKJjLeKlfq3drGUEYHt-105" value="" style="rounded=1;whiteSpace=wrap;html=1;hachureGap=4;fontFamily=Mina;fontSource=https%3A%2F%2Ffonts.googleapis.com%2Fcss%3Ffamily%3DMina;fillColor=none;arcSize=16;strokeWidth=2;" parent="xpKJjLeKlfq3drGUEYHt-141" vertex="1">
          <mxGeometry width="608" height="142" as="geometry" />
        </mxCell>
        <mxCell id="xpKJjLeKlfq3drGUEYHt-106" value="Mathematics" style="rounded=1;whiteSpace=wrap;html=1;hachureGap=4;fontFamily=Mina;fontSource=https%3A%2F%2Ffonts.googleapis.com%2Fcss%3Ffamily%3DMina;strokeWidth=2;fillColor=#ffff88;strokeColor=#36393d;fontSize=16;fontStyle=1;labelBorderColor=none;textShadow=0;labelBackgroundColor=none;align=center;spacing=5;verticalAlign=middle;spacingLeft=0;" parent="xpKJjLeKlfq3drGUEYHt-141" vertex="1">
          <mxGeometry x="28.5" y="19" width="120" height="40" as="geometry" />
        </mxCell>
        <mxCell id="xpKJjLeKlfq3drGUEYHt-107" value="Psychology" style="rounded=1;whiteSpace=wrap;html=1;hachureGap=4;fontFamily=Mina;fontSource=https%3A%2F%2Ffonts.googleapis.com%2Fcss%3Ffamily%3DMina;strokeWidth=2;fillColor=#ffcc99;strokeColor=#36393d;fontSize=16;fontStyle=1;labelBorderColor=none;textShadow=0;labelBackgroundColor=none;align=center;spacing=5;verticalAlign=middle;spacingLeft=0;" parent="xpKJjLeKlfq3drGUEYHt-141" vertex="1">
          <mxGeometry x="332.5" y="19" width="110" height="40" as="geometry" />
        </mxCell>
        <mxCell id="xpKJjLeKlfq3drGUEYHt-108" value="Biology" style="rounded=1;whiteSpace=wrap;html=1;hachureGap=4;fontFamily=Mina;fontSource=https%3A%2F%2Ffonts.googleapis.com%2Fcss%3Ffamily%3DMina;strokeWidth=2;fillColor=#cce5ff;strokeColor=#36393d;fontSize=16;fontStyle=1;labelBorderColor=none;textShadow=0;labelBackgroundColor=none;align=center;spacing=5;verticalAlign=middle;spacingLeft=0;" parent="xpKJjLeKlfq3drGUEYHt-141" vertex="1">
          <mxGeometry x="204.25" y="19" width="80" height="40" as="geometry" />
        </mxCell>
        <mxCell id="xpKJjLeKlfq3drGUEYHt-109" value="Sociology" style="rounded=1;whiteSpace=wrap;html=1;hachureGap=4;fontFamily=Mina;fontSource=https%3A%2F%2Ffonts.googleapis.com%2Fcss%3Ffamily%3DMina;strokeWidth=2;fillColor=#cdeb8b;strokeColor=#36393d;fontSize=16;fontStyle=1;labelBorderColor=none;textShadow=0;labelBackgroundColor=none;align=center;spacing=5;verticalAlign=middle;spacingLeft=0;" parent="xpKJjLeKlfq3drGUEYHt-141" vertex="1">
          <mxGeometry x="250" y="79.5" width="100" height="40" as="geometry" />
        </mxCell>
        <mxCell id="xpKJjLeKlfq3drGUEYHt-110" value="&lt;div&gt;Computer Science&lt;/div&gt;" style="rounded=1;whiteSpace=wrap;html=1;hachureGap=4;fontFamily=Mina;fontSource=https%3A%2F%2Ffonts.googleapis.com%2Fcss%3Ffamily%3DMina;strokeWidth=2;fillColor=#b0e3e6;strokeColor=#000000;fontSize=16;fontStyle=1;labelBorderColor=none;textShadow=0;labelBackgroundColor=none;align=center;spacing=5;verticalAlign=middle;spacingLeft=0;" parent="xpKJjLeKlfq3drGUEYHt-141" vertex="1">
          <mxGeometry x="423.5" y="79.5" width="160" height="40" as="geometry" />
        </mxCell>
        <mxCell id="xpKJjLeKlfq3drGUEYHt-111" value="&lt;div&gt;Neurons Study&lt;/div&gt;" style="rounded=1;whiteSpace=wrap;html=1;hachureGap=4;fontFamily=Mina;fontSource=https%3A%2F%2Ffonts.googleapis.com%2Fcss%3Ffamily%3DMina;strokeWidth=2;fillColor=#d0cee2;strokeColor=#000000;fontSize=16;fontStyle=1;labelBorderColor=none;textShadow=0;labelBackgroundColor=none;align=center;spacing=5;verticalAlign=middle;spacingLeft=0;" parent="xpKJjLeKlfq3drGUEYHt-141" vertex="1">
          <mxGeometry x="28.5" y="79.5" width="140" height="40" as="geometry" />
        </mxCell>
        <mxCell id="xpKJjLeKlfq3drGUEYHt-115" value="Statistics" style="rounded=1;whiteSpace=wrap;html=1;hachureGap=4;fontFamily=Mina;fontSource=https%3A%2F%2Ffonts.googleapis.com%2Fcss%3Ffamily%3DMina;strokeWidth=2;fillColor=#eeeeee;strokeColor=#000000;fontSize=16;fontStyle=1;labelBorderColor=none;textShadow=0;labelBackgroundColor=none;align=center;spacing=5;verticalAlign=middle;spacingLeft=0;" parent="xpKJjLeKlfq3drGUEYHt-141" vertex="1">
          <mxGeometry x="493.5" y="19" width="90" height="40" as="geometry" />
        </mxCell>
        <mxCell id="xpKJjLeKlfq3drGUEYHt-166" value="" style="group" parent="1" vertex="1" connectable="0">
          <mxGeometry x="74" y="1970" width="680" height="235" as="geometry" />
        </mxCell>
        <mxCell id="xpKJjLeKlfq3drGUEYHt-145" value="&lt;div&gt;Goals of AI?&amp;nbsp;&lt;/div&gt;" style="rounded=1;whiteSpace=wrap;html=1;hachureGap=4;fontFamily=Mina;fontSource=https%3A%2F%2Ffonts.googleapis.com%2Fcss%3Ffamily%3DMina;strokeWidth=2;fillColor=#0050ef;strokeColor=#000000;fontSize=23;fontStyle=1;labelBorderColor=none;textShadow=0;labelBackgroundColor=none;arcSize=17;container=0;fontColor=#ffffff;" parent="xpKJjLeKlfq3drGUEYHt-166" vertex="1">
          <mxGeometry x="10" width="170" height="40" as="geometry" />
        </mxCell>
        <mxCell id="xpKJjLeKlfq3drGUEYHt-149" value="Solve Knowledge-intensive tasks" style="rounded=1;whiteSpace=wrap;html=1;hachureGap=4;fontFamily=Mina;fontSource=https%3A%2F%2Ffonts.googleapis.com%2Fcss%3Ffamily%3DMina;strokeWidth=2;fillColor=#cce5ff;strokeColor=#000000;fontSize=16;fontStyle=1;labelBorderColor=none;textShadow=0;labelBackgroundColor=none;align=left;spacing=5;verticalAlign=middle;container=0;" parent="xpKJjLeKlfq3drGUEYHt-166" vertex="1">
          <mxGeometry y="70" width="256" height="30" as="geometry" />
        </mxCell>
        <mxCell id="xpKJjLeKlfq3drGUEYHt-153" value="Building a machine which can perform tasks that requires human intelligence such as: [Proving a theorem, Playing chess, Plan some surgical operation, Driving a car in traffic]" style="rounded=1;whiteSpace=wrap;html=1;hachureGap=4;fontFamily=Mina;fontSource=https%3A%2F%2Ffonts.googleapis.com%2Fcss%3Ffamily%3DMina;strokeWidth=2;fillColor=#cce5ff;strokeColor=#000000;fontSize=16;fontStyle=1;labelBorderColor=none;textShadow=0;labelBackgroundColor=none;align=left;spacing=5;verticalAlign=middle;container=0;" parent="xpKJjLeKlfq3drGUEYHt-166" vertex="1">
          <mxGeometry y="180" width="680" height="55" as="geometry" />
        </mxCell>
        <mxCell id="xpKJjLeKlfq3drGUEYHt-157" value="Creating some system which can exhibit intelligent behavior, learn new things by itself, demonstrate, explain, and can advise to its user." style="rounded=1;whiteSpace=wrap;html=1;hachureGap=4;fontFamily=Mina;fontSource=https%3A%2F%2Ffonts.googleapis.com%2Fcss%3Ffamily%3DMina;strokeWidth=2;fillColor=#cce5ff;strokeColor=#000000;fontSize=16;fontStyle=1;labelBorderColor=none;textShadow=0;labelBackgroundColor=none;align=left;spacing=5;verticalAlign=middle;container=0;flipH=0;" parent="xpKJjLeKlfq3drGUEYHt-166" vertex="1">
          <mxGeometry y="130" width="520.98" height="50" as="geometry" />
        </mxCell>
        <mxCell id="xpKJjLeKlfq3drGUEYHt-161" value="Cannot beat this power of human intelligence" style="rounded=1;whiteSpace=wrap;html=1;hachureGap=4;fontFamily=Mina;fontSource=https%3A%2F%2Ffonts.googleapis.com%2Fcss%3Ffamily%3DMina;strokeWidth=2;fillColor=#cce5ff;strokeColor=#000000;fontSize=16;fontStyle=1;labelBorderColor=none;textShadow=0;labelBackgroundColor=none;align=left;spacing=5;verticalAlign=middle;container=0;" parent="xpKJjLeKlfq3drGUEYHt-166" vertex="1">
          <mxGeometry y="100" width="351" height="30" as="geometry" />
        </mxCell>
        <mxCell id="xpKJjLeKlfq3drGUEYHt-165" value="Replicate human intelligence" style="rounded=1;whiteSpace=wrap;html=1;hachureGap=4;fontFamily=Mina;fontSource=https%3A%2F%2Ffonts.googleapis.com%2Fcss%3Ffamily%3DMina;strokeWidth=2;fillColor=#cce5ff;strokeColor=#000000;fontSize=16;fontStyle=1;labelBorderColor=none;textShadow=0;labelBackgroundColor=none;align=left;spacing=5;verticalAlign=middle;container=0;" parent="xpKJjLeKlfq3drGUEYHt-166" vertex="1">
          <mxGeometry y="40" width="219" height="30" as="geometry" />
        </mxCell>
        <mxCell id="xpKJjLeKlfq3drGUEYHt-51" value="Types of AI" style="rounded=1;whiteSpace=wrap;html=1;fillColor=#e1d5e7;strokeColor=#000000;fontFamily=Mina;fontSource=https%3A%2F%2Ffonts.googleapis.com%2Fcss%3Ffamily%3DMina;fontStyle=1;fontSize=20;strokeWidth=2;" parent="1" vertex="1">
          <mxGeometry x="40" y="2640" width="148" height="50" as="geometry" />
        </mxCell>
        <mxCell id="xpKJjLeKlfq3drGUEYHt-49" style="edgeStyle=orthogonalEdgeStyle;rounded=1;orthogonalLoop=1;jettySize=auto;html=1;curved=0;strokeWidth=2;" parent="1" source="xpKJjLeKlfq3drGUEYHt-51" target="xpKJjLeKlfq3drGUEYHt-65" edge="1">
          <mxGeometry relative="1" as="geometry">
            <Array as="points">
              <mxPoint x="227" y="2665" />
            </Array>
          </mxGeometry>
        </mxCell>
        <mxCell id="xpKJjLeKlfq3drGUEYHt-50" style="edgeStyle=orthogonalEdgeStyle;rounded=1;orthogonalLoop=1;jettySize=auto;html=1;curved=0;strokeWidth=2;" parent="1" source="xpKJjLeKlfq3drGUEYHt-51" target="xpKJjLeKlfq3drGUEYHt-55" edge="1">
          <mxGeometry relative="1" as="geometry">
            <Array as="points">
              <mxPoint x="227" y="2665" />
            </Array>
          </mxGeometry>
        </mxCell>
        <mxCell id="xpKJjLeKlfq3drGUEYHt-62" style="edgeStyle=orthogonalEdgeStyle;rounded=1;orthogonalLoop=1;jettySize=auto;html=1;curved=0;strokeWidth=2;strokeColor=#000000;" parent="1" source="xpKJjLeKlfq3drGUEYHt-65" target="xpKJjLeKlfq3drGUEYHt-69" edge="1">
          <mxGeometry relative="1" as="geometry">
            <mxPoint x="334" y="2555" as="sourcePoint" />
            <mxPoint x="374" y="2586" as="targetPoint" />
            <Array as="points">
              <mxPoint x="340" y="2555" />
              <mxPoint x="340" y="2385" />
            </Array>
          </mxGeometry>
        </mxCell>
        <mxCell id="xpKJjLeKlfq3drGUEYHt-63" style="edgeStyle=orthogonalEdgeStyle;rounded=1;orthogonalLoop=1;jettySize=auto;html=1;curved=0;strokeWidth=2;" parent="1" source="xpKJjLeKlfq3drGUEYHt-65" target="xpKJjLeKlfq3drGUEYHt-75" edge="1">
          <mxGeometry relative="1" as="geometry">
            <Array as="points" />
            <mxPoint x="334" y="2555" as="sourcePoint" />
          </mxGeometry>
        </mxCell>
        <mxCell id="xpKJjLeKlfq3drGUEYHt-64" style="edgeStyle=orthogonalEdgeStyle;rounded=1;orthogonalLoop=1;jettySize=auto;html=1;curved=0;strokeWidth=2;" parent="1" source="xpKJjLeKlfq3drGUEYHt-65" target="xpKJjLeKlfq3drGUEYHt-79" edge="1">
          <mxGeometry relative="1" as="geometry">
            <Array as="points">
              <mxPoint x="340" y="2555" />
              <mxPoint x="340" y="2805" />
            </Array>
          </mxGeometry>
        </mxCell>
        <mxCell id="xpKJjLeKlfq3drGUEYHt-65" value="Based on Capabilities" style="rounded=1;whiteSpace=wrap;html=1;fillColor=#ffff88;strokeColor=#000000;strokeWidth=2;fontFamily=Mina;fontSource=https%3A%2F%2Ffonts.googleapis.com%2Fcss%3Ffamily%3DMina;fontSize=16;fontStyle=1;" parent="1" vertex="1">
          <mxGeometry x="144" y="2540" width="166" height="30" as="geometry" />
        </mxCell>
        <mxCell id="xpKJjLeKlfq3drGUEYHt-79" value="Super&amp;nbsp;AI" style="rounded=1;whiteSpace=wrap;html=1;fillColor=#e51400;strokeColor=#000000;fontFamily=Mina;fontSource=https%3A%2F%2Ffonts.googleapis.com%2Fcss%3Ffamily%3DMina;fontColor=#ffffff;fontStyle=1;fontSize=16;strokeWidth=2;" parent="1" vertex="1">
          <mxGeometry x="373.94" y="2790" width="76.06" height="30" as="geometry" />
        </mxCell>
        <mxCell id="xpKJjLeKlfq3drGUEYHt-88" value="&lt;div style=&quot;font-size: 14px;&quot;&gt;Is surpass human intelligence, and can perform any task better than human.&lt;/div&gt;" style="rounded=1;whiteSpace=wrap;html=1;fillColor=#ffcccc;strokeColor=#000000;fontFamily=Mina;fontSource=https%3A%2F%2Ffonts.googleapis.com%2Fcss%3Ffamily%3DMina;align=left;fontSize=14;fontStyle=1;strokeWidth=2;spacingLeft=5;" parent="1" vertex="1">
          <mxGeometry x="366" y="2850" width="420" height="50" as="geometry" />
        </mxCell>
        <mxCell id="xpKJjLeKlfq3drGUEYHt-89" value="&lt;div style=&quot;font-size: 14px;&quot;&gt;Include capability include the ability to think, to reason, solve the puzzle, make judgments, plan, learn, and communicate.&lt;/div&gt;" style="rounded=1;whiteSpace=wrap;html=1;fillColor=#ffcccc;strokeColor=#000000;fontFamily=Mina;fontSource=https%3A%2F%2Ffonts.googleapis.com%2Fcss%3Ffamily%3DMina;align=left;fontSize=14;fontStyle=1;strokeWidth=2;spacingLeft=5;" parent="1" vertex="1">
          <mxGeometry x="366" y="2900" width="420" height="50" as="geometry" />
        </mxCell>
        <mxCell id="xpKJjLeKlfq3drGUEYHt-90" value="&lt;div style=&quot;font-size: 14px;&quot;&gt;Still a hypothetical concept of Artificial Intelligence.&lt;/div&gt;" style="rounded=1;whiteSpace=wrap;html=1;fillColor=#ffcccc;strokeColor=#000000;fontFamily=Mina;fontSource=https%3A%2F%2Ffonts.googleapis.com%2Fcss%3Ffamily%3DMina;align=left;fontSize=14;fontStyle=1;strokeWidth=2;spacingLeft=5;" parent="1" vertex="1">
          <mxGeometry x="366" y="2820" width="344" height="30" as="geometry" />
        </mxCell>
        <mxCell id="xpKJjLeKlfq3drGUEYHt-167" value="" style="group" parent="1" vertex="1" connectable="0">
          <mxGeometry x="366" y="2370" width="420" height="140" as="geometry" />
        </mxCell>
        <mxCell id="xpKJjLeKlfq3drGUEYHt-69" value="Weak AI" style="rounded=1;whiteSpace=wrap;html=1;fillColor=#008a00;strokeColor=#000000;fontFamily=Mina;fontSource=https%3A%2F%2Ffonts.googleapis.com%2Fcss%3Ffamily%3DMina;fontSize=16;fontStyle=1;strokeWidth=2;fontColor=#ffffff;" parent="xpKJjLeKlfq3drGUEYHt-167" vertex="1">
          <mxGeometry x="10" width="80" height="30" as="geometry" />
        </mxCell>
        <mxCell id="xpKJjLeKlfq3drGUEYHt-80" value="Is able to perform a dedicated task" style="rounded=1;whiteSpace=wrap;html=1;fillColor=#cdeb8b;strokeColor=#000000;fontFamily=Mina;fontSource=https%3A%2F%2Ffonts.googleapis.com%2Fcss%3Ffamily%3DMina;align=left;fontSize=14;fontStyle=1;strokeWidth=2;spacingLeft=5;" parent="xpKJjLeKlfq3drGUEYHt-167" vertex="1">
          <mxGeometry y="30" width="240" height="30" as="geometry" />
        </mxCell>
        <mxCell id="xpKJjLeKlfq3drGUEYHt-81" value="&lt;font style=&quot;font-size: 14px;&quot;&gt;Cannot perform beyond its field or limitations `to` only trained for one specific task and can fail in unpredictable ways.&lt;/font&gt;" style="rounded=1;whiteSpace=wrap;html=1;fillColor=#cdeb8b;strokeColor=#000000;fontFamily=Mina;fontSource=https%3A%2F%2Ffonts.googleapis.com%2Fcss%3Ffamily%3DMina;align=left;fontSize=14;fontStyle=1;strokeWidth=2;spacingLeft=5;" parent="xpKJjLeKlfq3drGUEYHt-167" vertex="1">
          <mxGeometry y="60" width="420" height="50" as="geometry" />
        </mxCell>
        <mxCell id="xpKJjLeKlfq3drGUEYHt-82" value="&lt;font color=&quot;#ff3333&quot; style=&quot;font-size: 14px;&quot;&gt;EX&lt;/font&gt;(Apple Siris, IBM&#39;s Watson supercomputer, playing chess)." style="rounded=1;whiteSpace=wrap;html=1;fillColor=#cdeb8b;strokeColor=#000000;fontFamily=Mina;fontSource=https%3A%2F%2Ffonts.googleapis.com%2Fcss%3Ffamily%3DMina;align=left;fontSize=14;fontStyle=1;strokeWidth=2;spacingLeft=5;" parent="xpKJjLeKlfq3drGUEYHt-167" vertex="1">
          <mxGeometry y="110" width="420" height="30" as="geometry" />
        </mxCell>
        <mxCell id="xpKJjLeKlfq3drGUEYHt-168" value="" style="group" parent="1" vertex="1" connectable="0">
          <mxGeometry x="366" y="2540" width="420" height="220" as="geometry" />
        </mxCell>
        <mxCell id="xpKJjLeKlfq3drGUEYHt-75" value="General AI" style="rounded=1;whiteSpace=wrap;html=1;fillColor=#0050ef;strokeColor=#000000;fontFamily=Mina;fontSource=https%3A%2F%2Ffonts.googleapis.com%2Fcss%3Ffamily%3DMina;fontSize=16;fontStyle=1;strokeWidth=2;fontColor=#ffffff;" parent="xpKJjLeKlfq3drGUEYHt-168" vertex="1">
          <mxGeometry x="10" width="94" height="30" as="geometry" />
        </mxCell>
        <mxCell id="xpKJjLeKlfq3drGUEYHt-83" value="&lt;div style=&quot;font-size: 14px;&quot;&gt;&lt;span style=&quot;background-color: initial;&quot;&gt;Can perform any intellectual task with efficiency like a human.&lt;/span&gt;&lt;/div&gt;" style="rounded=1;whiteSpace=wrap;html=1;fillColor=#cce5ff;strokeColor=#000000;fontFamily=Mina;fontSource=https%3A%2F%2Ffonts.googleapis.com%2Fcss%3Ffamily%3DMina;align=left;fontSize=14;fontStyle=1;strokeWidth=2;spacingLeft=5;" parent="xpKJjLeKlfq3drGUEYHt-168" vertex="1">
          <mxGeometry y="90" width="420" height="30" as="geometry" />
        </mxCell>
        <mxCell id="xpKJjLeKlfq3drGUEYHt-84" value="&lt;div style=&quot;font-size: 14px;&quot;&gt;Smarter and think like a human.&lt;/div&gt;" style="rounded=1;whiteSpace=wrap;html=1;fillColor=#cce5ff;strokeColor=#36393d;fontFamily=Mina;fontSource=https%3A%2F%2Ffonts.googleapis.com%2Fcss%3Ffamily%3DMina;align=left;fontSize=14;fontStyle=1;strokeWidth=2;spacingLeft=5;" parent="xpKJjLeKlfq3drGUEYHt-168" vertex="1">
          <mxGeometry y="60" width="223" height="30" as="geometry" />
        </mxCell>
        <mxCell id="xpKJjLeKlfq3drGUEYHt-85" value="&lt;div style=&quot;font-size: 14px;&quot;&gt;No such system exist&lt;/div&gt;" style="rounded=1;whiteSpace=wrap;html=1;fillColor=#cce5ff;strokeColor=#36393d;fontFamily=Mina;fontSource=https%3A%2F%2Ffonts.googleapis.com%2Fcss%3Ffamily%3DMina;align=left;fontSize=14;fontStyle=1;strokeWidth=2;spacingLeft=5;" parent="xpKJjLeKlfq3drGUEYHt-168" vertex="1">
          <mxGeometry y="30" width="154" height="30" as="geometry" />
        </mxCell>
        <mxCell id="xpKJjLeKlfq3drGUEYHt-86" value="&lt;div style=&quot;font-size: 14px;&quot;&gt;Worldwide researchers are now focused on developing machines with General AI.&lt;/div&gt;" style="rounded=1;whiteSpace=wrap;html=1;fillColor=#cce5ff;strokeColor=#36393d;fontFamily=Mina;fontSource=https%3A%2F%2Ffonts.googleapis.com%2Fcss%3Ffamily%3DMina;align=left;fontSize=14;fontStyle=1;strokeWidth=2;spacingLeft=5;" parent="xpKJjLeKlfq3drGUEYHt-168" vertex="1">
          <mxGeometry y="120" width="420" height="50" as="geometry" />
        </mxCell>
        <mxCell id="xpKJjLeKlfq3drGUEYHt-87" value="&lt;div style=&quot;font-size: 14px;&quot;&gt;General AI Systems still under research, and it will take lots of efforts and time to develop.&lt;/div&gt;" style="rounded=1;whiteSpace=wrap;html=1;fillColor=#cce5ff;strokeColor=#36393d;fontFamily=Mina;fontSource=https%3A%2F%2Ffonts.googleapis.com%2Fcss%3Ffamily%3DMina;align=left;fontSize=14;fontStyle=1;strokeWidth=2;spacingLeft=5;" parent="xpKJjLeKlfq3drGUEYHt-168" vertex="1">
          <mxGeometry y="170" width="420" height="50" as="geometry" />
        </mxCell>
        <mxCell id="-yXsvrhgGh--1ZpngYir-12" value="" style="group" vertex="1" connectable="0" parent="1">
          <mxGeometry x="110" y="2990" width="330" height="230" as="geometry" />
        </mxCell>
        <mxCell id="-yXsvrhgGh--1ZpngYir-3" value="Reactive Machines" style="rounded=1;whiteSpace=wrap;html=1;fillColor=#008a00;strokeColor=#000000;fontFamily=Mina;fontSource=https%3A%2F%2Ffonts.googleapis.com%2Fcss%3Ffamily%3DMina;fontColor=#ffffff;fontStyle=1;fontSize=16;strokeWidth=2;" vertex="1" parent="-yXsvrhgGh--1ZpngYir-12">
          <mxGeometry x="7.940000000000001" width="152.06" height="30" as="geometry" />
        </mxCell>
        <mxCell id="-yXsvrhgGh--1ZpngYir-4" value="&lt;div style=&quot;font-size: 14px;&quot;&gt;&lt;div&gt;Such AI systems&amp;nbsp;&lt;span style=&quot;background-color: initial;&quot;&gt;do not store memories&amp;nbsp;&lt;/span&gt;&lt;span style=&quot;background-color: initial;&quot;&gt;or&amp;nbsp;&lt;/span&gt;&lt;span style=&quot;background-color: initial;&quot;&gt;past experiences for future actions.&lt;/span&gt;&lt;/div&gt;&lt;/div&gt;" style="rounded=1;whiteSpace=wrap;html=1;fillColor=#cdeb8b;strokeColor=#000000;fontFamily=Mina;fontSource=https%3A%2F%2Ffonts.googleapis.com%2Fcss%3Ffamily%3DMina;align=left;fontSize=14;fontStyle=1;strokeWidth=2;spacingLeft=5;spacing=2;spacingRight=1;" vertex="1" parent="-yXsvrhgGh--1ZpngYir-12">
          <mxGeometry y="80" width="330" height="50" as="geometry" />
        </mxCell>
        <mxCell id="-yXsvrhgGh--1ZpngYir-5" value="&lt;div style=&quot;font-size: 14px;&quot;&gt;&lt;div&gt;These machines only focus on current scenarios and react on it as per possible best&amp;nbsp;&lt;span style=&quot;background-color: initial;&quot;&gt;action.&lt;/span&gt;&lt;/div&gt;&lt;/div&gt;" style="rounded=1;whiteSpace=wrap;html=1;fillColor=#cdeb8b;strokeColor=#000000;fontFamily=Mina;fontSource=https%3A%2F%2Ffonts.googleapis.com%2Fcss%3Ffamily%3DMina;align=left;fontSize=14;fontStyle=1;strokeWidth=2;spacingLeft=5;" vertex="1" parent="-yXsvrhgGh--1ZpngYir-12">
          <mxGeometry y="130" width="330" height="50" as="geometry" />
        </mxCell>
        <mxCell id="-yXsvrhgGh--1ZpngYir-6" value="&lt;div style=&quot;font-size: 14px;&quot;&gt;&lt;div&gt;Purely reactive machines are the&amp;nbsp;&lt;span style=&quot;background-color: initial;&quot;&gt;most basic types of Artificial Intelligence&lt;/span&gt;&lt;span style=&quot;background-color: initial;&quot;&gt;.&lt;/span&gt;&lt;/div&gt;&lt;/div&gt;" style="rounded=1;whiteSpace=wrap;html=1;fillColor=#cdeb8b;strokeColor=#000000;fontFamily=Mina;fontSource=https%3A%2F%2Ffonts.googleapis.com%2Fcss%3Ffamily%3DMina;align=left;fontSize=14;fontStyle=1;strokeWidth=2;spacingLeft=5;" vertex="1" parent="-yXsvrhgGh--1ZpngYir-12">
          <mxGeometry y="30" width="270" height="50" as="geometry" />
        </mxCell>
        <mxCell id="-yXsvrhgGh--1ZpngYir-11" value="&lt;div style=&quot;&quot;&gt;e.g. : IBM&#39;s Deep Blue system &amp;amp;&amp;nbsp;Google&#39;s AlphaGo&lt;br&gt;&lt;/div&gt;" style="rounded=1;whiteSpace=wrap;html=1;fillColor=#cdeb8b;strokeColor=#000000;fontFamily=Mina;fontSource=https%3A%2F%2Ffonts.googleapis.com%2Fcss%3Ffamily%3DMina;align=left;fontSize=14;fontStyle=1;strokeWidth=2;spacingLeft=5;" vertex="1" parent="-yXsvrhgGh--1ZpngYir-12">
          <mxGeometry y="180" width="330" height="50" as="geometry" />
        </mxCell>
        <mxCell id="-yXsvrhgGh--1ZpngYir-13" value="" style="group" vertex="1" connectable="0" parent="1">
          <mxGeometry x="20" y="3280" width="350" height="180" as="geometry" />
        </mxCell>
        <mxCell id="-yXsvrhgGh--1ZpngYir-7" value="Limited Memory" style="rounded=1;whiteSpace=wrap;html=1;fillColor=#e51400;strokeColor=#000000;fontFamily=Mina;fontSource=https%3A%2F%2Ffonts.googleapis.com%2Fcss%3Ffamily%3DMina;fontColor=#ffffff;fontStyle=1;fontSize=16;strokeWidth=2;" vertex="1" parent="-yXsvrhgGh--1ZpngYir-13">
          <mxGeometry x="7.940000000000001" width="142.06" height="30" as="geometry" />
        </mxCell>
        <mxCell id="-yXsvrhgGh--1ZpngYir-8" value="&lt;div style=&quot;font-size: 14px;&quot;&gt;Limited memory machines&amp;nbsp;&lt;span style=&quot;background-color: initial;&quot;&gt;can store past experiences&amp;nbsp;&lt;/span&gt;&lt;span style=&quot;background-color: initial;&quot;&gt;or some data for&amp;nbsp;&lt;/span&gt;&lt;span style=&quot;background-color: initial;&quot;&gt;a short&amp;nbsp;&lt;/span&gt;&lt;span style=&quot;background-color: initial;&quot;&gt;period of time.&lt;/span&gt;&lt;br&gt;&lt;/div&gt;" style="rounded=1;whiteSpace=wrap;html=1;fillColor=#ffcccc;strokeColor=#000000;fontFamily=Mina;fontSource=https%3A%2F%2Ffonts.googleapis.com%2Fcss%3Ffamily%3DMina;align=left;fontSize=14;fontStyle=1;strokeWidth=2;spacingLeft=5;spacing=2;spacingRight=1;" vertex="1" parent="-yXsvrhgGh--1ZpngYir-13">
          <mxGeometry y="80" width="350" height="50" as="geometry" />
        </mxCell>
        <mxCell id="-yXsvrhgGh--1ZpngYir-9" value="&lt;div style=&quot;&quot;&gt;&lt;div style=&quot;&quot;&gt;Self-driving cars&amp;nbsp;&lt;span style=&quot;background-color: initial;&quot;&gt;are one of the&amp;nbsp;&lt;/span&gt;&lt;span style=&quot;background-color: initial;&quot;&gt;best examples&lt;/span&gt;&lt;/div&gt;&lt;div style=&quot;&quot;&gt;of Limited Memory systems&lt;/div&gt;&lt;/div&gt;" style="rounded=1;whiteSpace=wrap;html=1;fillColor=#ffcccc;strokeColor=#000000;fontFamily=Mina;fontSource=https%3A%2F%2Ffonts.googleapis.com%2Fcss%3Ffamily%3DMina;align=left;fontSize=14;fontStyle=1;strokeWidth=2;spacingLeft=5;" vertex="1" parent="-yXsvrhgGh--1ZpngYir-13">
          <mxGeometry y="130" width="350" height="50" as="geometry" />
        </mxCell>
        <mxCell id="-yXsvrhgGh--1ZpngYir-10" value="&lt;div style=&quot;&quot;&gt;&lt;div style=&quot;&quot;&gt;&lt;div&gt;These machines can use&amp;nbsp;&lt;span style=&quot;background-color: initial;&quot;&gt;stored data for a limited time&amp;nbsp;&lt;/span&gt;&lt;span style=&quot;background-color: initial;&quot;&gt;period only.&lt;/span&gt;&lt;/div&gt;&lt;/div&gt;&lt;/div&gt;" style="rounded=1;whiteSpace=wrap;html=1;fillColor=#ffcccc;strokeColor=#000000;fontFamily=Mina;fontSource=https%3A%2F%2Ffonts.googleapis.com%2Fcss%3Ffamily%3DMina;align=left;fontSize=14;fontStyle=1;strokeWidth=2;spacingLeft=5;" vertex="1" parent="-yXsvrhgGh--1ZpngYir-13">
          <mxGeometry y="30" width="350" height="50" as="geometry" />
        </mxCell>
        <mxCell id="-yXsvrhgGh--1ZpngYir-14" value="" style="group" vertex="1" connectable="0" parent="1">
          <mxGeometry x="460" y="2990" width="350" height="170" as="geometry" />
        </mxCell>
        <mxCell id="-yXsvrhgGh--1ZpngYir-15" value="Theory of Mind" style="rounded=1;whiteSpace=wrap;html=1;fillColor=#0050ef;strokeColor=#000000;fontFamily=Mina;fontSource=https%3A%2F%2Ffonts.googleapis.com%2Fcss%3Ffamily%3DMina;fontColor=#ffffff;fontStyle=1;fontSize=16;strokeWidth=2;" vertex="1" parent="-yXsvrhgGh--1ZpngYir-14">
          <mxGeometry x="7.940000000000001" width="142.06" height="30" as="geometry" />
        </mxCell>
        <mxCell id="-yXsvrhgGh--1ZpngYir-16" value="&lt;div style=&quot;&quot;&gt;&lt;div style=&quot;&quot;&gt;This type of AI machines are&amp;nbsp;&lt;span style=&quot;background-color: initial;&quot;&gt;still not developed,&amp;nbsp;&lt;/span&gt;&lt;span style=&quot;background-color: initial;&quot;&gt;but researchers are making lots&amp;nbsp;&lt;/span&gt;&lt;span style=&quot;background-color: initial;&quot;&gt;of efforts and improvement for developing such AI machines.&lt;/span&gt;&lt;/div&gt;&lt;/div&gt;" style="rounded=1;whiteSpace=wrap;html=1;fillColor=#cce5ff;strokeColor=#000000;fontFamily=Mina;fontSource=https%3A%2F%2Ffonts.googleapis.com%2Fcss%3Ffamily%3DMina;align=left;fontSize=14;fontStyle=1;strokeWidth=2;spacingLeft=5;spacing=2;spacingRight=1;" vertex="1" parent="-yXsvrhgGh--1ZpngYir-14">
          <mxGeometry y="100" width="350" height="70" as="geometry" />
        </mxCell>
        <mxCell id="-yXsvrhgGh--1ZpngYir-18" value="&lt;div style=&quot;&quot;&gt;&lt;div style=&quot;&quot;&gt;&lt;div&gt;Theory of Mind AI&amp;nbsp;&lt;span style=&quot;background-color: initial;&quot;&gt;should understand the human emotions&lt;/span&gt;&lt;span style=&quot;background-color: initial;&quot;&gt;, people, beliefs, and&amp;nbsp;&lt;/span&gt;&lt;span style=&quot;background-color: initial;&quot;&gt;be able to interact socially like humans.&lt;/span&gt;&lt;/div&gt;&lt;/div&gt;&lt;/div&gt;" style="rounded=1;whiteSpace=wrap;html=1;fillColor=#cce5ff;strokeColor=#000000;fontFamily=Mina;fontSource=https%3A%2F%2Ffonts.googleapis.com%2Fcss%3Ffamily%3DMina;align=left;fontSize=14;fontStyle=1;strokeWidth=2;spacingLeft=5;" vertex="1" parent="-yXsvrhgGh--1ZpngYir-14">
          <mxGeometry y="30" width="350" height="70" as="geometry" />
        </mxCell>
        <mxCell id="-yXsvrhgGh--1ZpngYir-19" value="" style="group" vertex="1" connectable="0" parent="1">
          <mxGeometry x="440" y="3280" width="350" height="190" as="geometry" />
        </mxCell>
        <mxCell id="-yXsvrhgGh--1ZpngYir-27" style="edgeStyle=orthogonalEdgeStyle;rounded=1;orthogonalLoop=1;jettySize=auto;html=1;curved=0;strokeWidth=2;startArrow=classic;startFill=1;endArrow=none;endFill=0;" edge="1" parent="-yXsvrhgGh--1ZpngYir-19" source="-yXsvrhgGh--1ZpngYir-20">
          <mxGeometry relative="1" as="geometry">
            <mxPoint x="-370" y="-30" as="targetPoint" />
            <Array as="points">
              <mxPoint x="79" y="-30" />
            </Array>
          </mxGeometry>
        </mxCell>
        <mxCell id="-yXsvrhgGh--1ZpngYir-20" value="Self-Awareness" style="rounded=1;whiteSpace=wrap;html=1;fillColor=#a0522d;strokeColor=#000000;fontFamily=Mina;fontSource=https%3A%2F%2Ffonts.googleapis.com%2Fcss%3Ffamily%3DMina;fontColor=#ffffff;fontStyle=1;fontSize=16;strokeWidth=2;" vertex="1" parent="-yXsvrhgGh--1ZpngYir-19">
          <mxGeometry x="7.940000000000001" width="142.06" height="30" as="geometry" />
        </mxCell>
        <mxCell id="-yXsvrhgGh--1ZpngYir-21" value="&lt;div style=&quot;font-size: 14px;&quot;&gt;&lt;div&gt;These machines will be&amp;nbsp;&lt;span style=&quot;background-color: initial;&quot;&gt;smarter than human mind&lt;/span&gt;&lt;/div&gt;&lt;/div&gt;" style="rounded=1;whiteSpace=wrap;html=1;fillColor=#ffcc99;strokeColor=#000000;fontFamily=Mina;fontSource=https%3A%2F%2Ffonts.googleapis.com%2Fcss%3Ffamily%3DMina;align=left;fontSize=14;fontStyle=1;strokeWidth=2;spacingLeft=5;spacing=2;spacingRight=1;" vertex="1" parent="-yXsvrhgGh--1ZpngYir-19">
          <mxGeometry y="110" width="350" height="30" as="geometry" />
        </mxCell>
        <mxCell id="-yXsvrhgGh--1ZpngYir-22" value="&lt;div style=&quot;&quot;&gt;&lt;div style=&quot;&quot;&gt;&lt;div&gt;Self-Awareness AI&amp;nbsp;&lt;span style=&quot;background-color: initial;&quot;&gt;does not exist in reality&amp;nbsp;&lt;/span&gt;&lt;span style=&quot;background-color: initial;&quot;&gt;still and it is a&amp;nbsp;&lt;/span&gt;&lt;span style=&quot;background-color: initial;&quot;&gt;hypothetical concept.&lt;/span&gt;&lt;/div&gt;&lt;/div&gt;&lt;/div&gt;" style="rounded=1;whiteSpace=wrap;html=1;fillColor=#ffcc99;strokeColor=#000000;fontFamily=Mina;fontSource=https%3A%2F%2Ffonts.googleapis.com%2Fcss%3Ffamily%3DMina;align=left;fontSize=14;fontStyle=1;strokeWidth=2;spacingLeft=5;" vertex="1" parent="-yXsvrhgGh--1ZpngYir-19">
          <mxGeometry y="140" width="350" height="50" as="geometry" />
        </mxCell>
        <mxCell id="-yXsvrhgGh--1ZpngYir-23" value="&lt;div style=&quot;&quot;&gt;&lt;div style=&quot;&quot;&gt;&lt;div&gt;Self-awareness AI is the&amp;nbsp;&lt;span style=&quot;background-color: initial;&quot;&gt;future of Artificial Intelligence&lt;/span&gt;&lt;span style=&quot;background-color: initial;&quot;&gt;. These machines will be&amp;nbsp;&lt;/span&gt;&lt;span style=&quot;background-color: initial;&quot;&gt;super intelligent&lt;/span&gt;&lt;span style=&quot;background-color: initial;&quot;&gt;, and will have their own consciousness, sentiments, and self-&lt;/span&gt;&lt;span style=&quot;background-color: initial;&quot;&gt;awareness.&lt;/span&gt;&lt;/div&gt;&lt;/div&gt;&lt;/div&gt;" style="rounded=1;whiteSpace=wrap;html=1;fillColor=#ffcc99;strokeColor=#000000;fontFamily=Mina;fontSource=https%3A%2F%2Ffonts.googleapis.com%2Fcss%3Ffamily%3DMina;align=left;fontSize=14;fontStyle=1;strokeWidth=2;spacingLeft=5;" vertex="1" parent="-yXsvrhgGh--1ZpngYir-19">
          <mxGeometry y="30" width="350" height="80" as="geometry" />
        </mxCell>
        <mxCell id="-yXsvrhgGh--1ZpngYir-24" style="edgeStyle=orthogonalEdgeStyle;rounded=1;orthogonalLoop=1;jettySize=auto;html=1;curved=0;strokeWidth=2;" edge="1" parent="1" source="xpKJjLeKlfq3drGUEYHt-55" target="-yXsvrhgGh--1ZpngYir-15">
          <mxGeometry relative="1" as="geometry">
            <Array as="points">
              <mxPoint x="227" y="2860" />
              <mxPoint x="340" y="2860" />
              <mxPoint x="340" y="2970" />
              <mxPoint x="539" y="2970" />
            </Array>
          </mxGeometry>
        </mxCell>
        <mxCell id="-yXsvrhgGh--1ZpngYir-25" style="edgeStyle=orthogonalEdgeStyle;rounded=1;orthogonalLoop=1;jettySize=auto;html=1;strokeWidth=2;curved=0;" edge="1" parent="1" source="xpKJjLeKlfq3drGUEYHt-55" target="-yXsvrhgGh--1ZpngYir-3">
          <mxGeometry relative="1" as="geometry">
            <Array as="points">
              <mxPoint x="227" y="2940" />
              <mxPoint x="227" y="2940" />
            </Array>
          </mxGeometry>
        </mxCell>
        <mxCell id="-yXsvrhgGh--1ZpngYir-26" style="edgeStyle=orthogonalEdgeStyle;rounded=1;orthogonalLoop=1;jettySize=auto;html=1;curved=0;strokeWidth=2;" edge="1" parent="1" source="xpKJjLeKlfq3drGUEYHt-55" target="-yXsvrhgGh--1ZpngYir-7">
          <mxGeometry relative="1" as="geometry">
            <Array as="points">
              <mxPoint x="227" y="2860" />
              <mxPoint x="70" y="2860" />
            </Array>
          </mxGeometry>
        </mxCell>
        <mxCell id="xpKJjLeKlfq3drGUEYHt-55" value="Based on&amp;nbsp;Functionality" style="rounded=1;whiteSpace=wrap;html=1;fillColor=#ffff88;strokeColor=#000000;fontSize=16;fontStyle=1;fontFamily=Mina;fontSource=https%3A%2F%2Ffonts.googleapis.com%2Fcss%3Ffamily%3DMina;spacingBottom=0;strokeWidth=2;" parent="1" vertex="1">
          <mxGeometry x="134" y="2760" width="186" height="30" as="geometry" />
        </mxCell>
        <mxCell id="-yXsvrhgGh--1ZpngYir-28" value="" style="group;flipH=1;" vertex="1" connectable="0" parent="1">
          <mxGeometry x="640" y="60" width="134" height="40" as="geometry" />
        </mxCell>
        <mxCell id="-yXsvrhgGh--1ZpngYir-29" value="Chapter" style="rounded=1;whiteSpace=wrap;html=1;fontSize=22;fillColor=#cce5ff;strokeColor=#000000;strokeWidth=2;fontFamily=Mina;arcSize=0;hachureGap=4;align=left;spacingRight=0;fontStyle=1;spacingLeft=7;" vertex="1" parent="-yXsvrhgGh--1ZpngYir-28">
          <mxGeometry width="114" height="40" as="geometry" />
        </mxCell>
        <mxCell id="-yXsvrhgGh--1ZpngYir-30" value="1" style="ellipse;whiteSpace=wrap;html=1;aspect=fixed;strokeWidth=2;fillColor=#0050ef;strokeColor=#000000;fontFamily=Mina;fontStyle=1;fontSize=22;spacingTop=3;fontColor=#ffffff;" vertex="1" parent="-yXsvrhgGh--1ZpngYir-28">
          <mxGeometry x="94" width="40" height="40" as="geometry" />
        </mxCell>
        <mxCell id="-yXsvrhgGh--1ZpngYir-32" value="" style="group;flipH=1;" vertex="1" connectable="0" parent="1">
          <mxGeometry x="660" y="3530" width="134" height="40" as="geometry" />
        </mxCell>
        <mxCell id="-yXsvrhgGh--1ZpngYir-33" value="Chapter" style="rounded=1;whiteSpace=wrap;html=1;fontSize=22;fillColor=#cce5ff;strokeColor=#000000;strokeWidth=2;fontFamily=Mina;arcSize=0;hachureGap=4;align=left;spacingRight=0;fontStyle=1;spacingLeft=7;" vertex="1" parent="-yXsvrhgGh--1ZpngYir-32">
          <mxGeometry width="114" height="40" as="geometry" />
        </mxCell>
        <mxCell id="-yXsvrhgGh--1ZpngYir-34" value="2" style="ellipse;whiteSpace=wrap;html=1;aspect=fixed;strokeWidth=2;fillColor=#0050ef;strokeColor=#000000;fontFamily=Mina;fontStyle=1;fontSize=22;spacingTop=3;fontColor=#ffffff;" vertex="1" parent="-yXsvrhgGh--1ZpngYir-32">
          <mxGeometry x="94" width="40" height="40" as="geometry" />
        </mxCell>
        <mxCell id="-yXsvrhgGh--1ZpngYir-35" value="" style="group;flipH=0;" vertex="1" connectable="0" parent="1">
          <mxGeometry x="34" y="3530" width="600" height="100" as="geometry" />
        </mxCell>
        <mxCell id="-yXsvrhgGh--1ZpngYir-36" value="Performance measure, Environment, Actuators, Sensors.&amp;nbsp;Must first specify the setting for intelligent agent design" style="rounded=1;whiteSpace=wrap;html=1;hachureGap=4;fontFamily=Mina;strokeWidth=2;fillColor=#ffcccc;strokeColor=#000000;fontSize=16;fontStyle=1;labelBorderColor=none;textShadow=0;labelBackgroundColor=none;align=left;spacing=7;verticalAlign=middle;" vertex="1" parent="-yXsvrhgGh--1ZpngYir-35">
          <mxGeometry y="40" width="600" height="60" as="geometry" />
        </mxCell>
        <mxCell id="-yXsvrhgGh--1ZpngYir-37" value="PEAS" style="rounded=1;whiteSpace=wrap;html=1;hachureGap=4;fontFamily=Mina;strokeWidth=2;fillColor=#e51400;strokeColor=#000000;fontSize=22;fontStyle=1;labelBorderColor=none;textShadow=0;labelBackgroundColor=none;align=center;spacing=5;verticalAlign=middle;spacingTop=3;spacingRight=2;fontColor=#ffffff;" vertex="1" parent="-yXsvrhgGh--1ZpngYir-35">
          <mxGeometry x="20" width="80" height="40" as="geometry" />
        </mxCell>
        <mxCell id="-yXsvrhgGh--1ZpngYir-104" value="" style="group" vertex="1" connectable="0" parent="1">
          <mxGeometry x="30" y="3660" width="766.24" height="331.48" as="geometry" />
        </mxCell>
        <mxCell id="-yXsvrhgGh--1ZpngYir-40" value="" style="rounded=0;whiteSpace=wrap;html=1;strokeWidth=2;fillColor=#0050ef;strokeColor=#000000;fontColor=#ffffff;container=0;fontSize=20;" vertex="1" parent="-yXsvrhgGh--1ZpngYir-104">
          <mxGeometry y="1.5796034740001432" width="127.70588196781341" height="53.20974137516127" as="geometry" />
        </mxCell>
        <mxCell id="-yXsvrhgGh--1ZpngYir-41" value="&lt;font face=&quot;Mina&quot;&gt;Performance Measure&lt;/font&gt;" style="rounded=0;whiteSpace=wrap;html=1;strokeWidth=2;fillColor=#0050ef;strokeColor=#000000;container=0;fontStyle=1;fontSize=16;fontColor=#ffffff;" vertex="1" parent="-yXsvrhgGh--1ZpngYir-104">
          <mxGeometry x="0.004708193119521767" y="54.78934484916142" width="127.70588196781341" height="74.49363792522578" as="geometry" />
        </mxCell>
        <mxCell id="-yXsvrhgGh--1ZpngYir-44" value="&lt;span style=&quot;font-family: Mina; text-align: left;&quot;&gt;Environment&lt;/span&gt;" style="rounded=0;whiteSpace=wrap;html=1;strokeWidth=2;fillColor=#0050ef;strokeColor=#000000;container=0;fontStyle=1;fontSize=16;fontColor=#ffffff;" vertex="1" parent="-yXsvrhgGh--1ZpngYir-104">
          <mxGeometry x="0.004708193119521767" y="129.2829827743872" width="127.70588196781341" height="63.85168965019353" as="geometry" />
        </mxCell>
        <mxCell id="-yXsvrhgGh--1ZpngYir-45" value="&lt;span style=&quot;font-family: Mina;&quot;&gt;Actuators&lt;/span&gt;" style="rounded=0;whiteSpace=wrap;html=1;strokeWidth=2;fillColor=#0050ef;strokeColor=#000000;container=0;fontStyle=1;fontSize=16;fontColor=#ffffff;" vertex="1" parent="-yXsvrhgGh--1ZpngYir-104">
          <mxGeometry x="0.004708193119521767" y="193.13467242458074" width="127.70588196781341" height="63.85168965019353" as="geometry" />
        </mxCell>
        <mxCell id="-yXsvrhgGh--1ZpngYir-46" value="&lt;span style=&quot;font-family: Mina;&quot;&gt;Sensors&lt;/span&gt;" style="rounded=0;whiteSpace=wrap;html=1;strokeWidth=2;fillColor=#0050ef;strokeColor=#000000;container=0;fontStyle=1;fontSize=16;fontColor=#ffffff;" vertex="1" parent="-yXsvrhgGh--1ZpngYir-104">
          <mxGeometry x="0.004708193119521767" y="256.98636207477426" width="127.70588196781341" height="74.49363792522578" as="geometry" />
        </mxCell>
        <mxCell id="-yXsvrhgGh--1ZpngYir-82" style="rounded=0;orthogonalLoop=1;jettySize=auto;html=1;exitX=0;exitY=0;exitDx=0;exitDy=0;entryX=1;entryY=1;entryDx=0;entryDy=0;endArrow=none;endFill=0;strokeWidth=2;" edge="1" parent="-yXsvrhgGh--1ZpngYir-104" source="-yXsvrhgGh--1ZpngYir-40" target="-yXsvrhgGh--1ZpngYir-40">
          <mxGeometry relative="1" as="geometry" />
        </mxCell>
        <mxCell id="-yXsvrhgGh--1ZpngYir-83" value="Examples" style="text;html=1;align=center;verticalAlign=middle;whiteSpace=wrap;rounded=0;fontFamily=Mina;fontSource=https%3A%2F%2Ffonts.googleapis.com%2Fcss%3Ffamily%3DMina;fontStyle=1;fontSize=14;fontColor=#FFFFFF;rotation=23.8;" vertex="1" parent="-yXsvrhgGh--1ZpngYir-104">
          <mxGeometry x="51.087060980244885" y="15.414136231542074" width="80.88039191294848" height="21.28389655006451" as="geometry" />
        </mxCell>
        <mxCell id="-yXsvrhgGh--1ZpngYir-84" value="PEAS" style="text;html=1;align=center;verticalAlign=middle;whiteSpace=wrap;rounded=0;fontFamily=Mina;fontSource=https%3A%2F%2Ffonts.googleapis.com%2Fcss%3Ffamily%3DMina;fontStyle=1;fontSize=16;fontColor=#FFFFFF;rotation=15;" vertex="1" parent="-yXsvrhgGh--1ZpngYir-104">
          <mxGeometry x="5.32578660844508" y="22.863500024064653" width="53.21078415325559" height="21.28389655006451" as="geometry" />
        </mxCell>
        <mxCell id="-yXsvrhgGh--1ZpngYir-85" value="Automated Taxi Driver" style="rounded=0;whiteSpace=wrap;html=1;strokeWidth=2;fillColor=#0050ef;strokeColor=#000000;fontColor=#ffffff;container=0;fontSize=16;fontFamily=Mina;fontSource=https%3A%2F%2Ffonts.googleapis.com%2Fcss%3Ffamily%3DMina;fontStyle=1" vertex="1" parent="-yXsvrhgGh--1ZpngYir-104">
          <mxGeometry x="127.70588196781338" y="1.5796034740001432" width="212.84313661302235" height="53.20974137516127" as="geometry" />
        </mxCell>
        <mxCell id="-yXsvrhgGh--1ZpngYir-89" value="Part-picking robot" style="rounded=0;whiteSpace=wrap;html=1;strokeWidth=2;fillColor=#0050ef;strokeColor=#000000;fontColor=#ffffff;container=0;fontSize=16;fontFamily=Mina;fontSource=https%3A%2F%2Ffonts.googleapis.com%2Fcss%3Ffamily%3DMina;fontStyle=1" vertex="1" parent="-yXsvrhgGh--1ZpngYir-104">
          <mxGeometry x="340.54901858083576" y="1.5796034740001432" width="212.84313661302235" height="53.20974137516127" as="geometry" />
        </mxCell>
        <mxCell id="-yXsvrhgGh--1ZpngYir-90" value="Interactive English Tutor" style="rounded=0;whiteSpace=wrap;html=1;strokeWidth=2;fillColor=#0050ef;strokeColor=#000000;fontColor=#ffffff;container=0;fontSize=16;fontFamily=Mina;fontSource=https%3A%2F%2Ffonts.googleapis.com%2Fcss%3Ffamily%3DMina;fontStyle=1;spacing=3;" vertex="1" parent="-yXsvrhgGh--1ZpngYir-104">
          <mxGeometry x="553.3921551938581" y="1.5796034740001432" width="212.84313661302235" height="53.20974137516127" as="geometry" />
        </mxCell>
        <mxCell id="-yXsvrhgGh--1ZpngYir-91" value="&lt;font face=&quot;Mina&quot;&gt;Safe, fast, legal, comfortable trip, maximize profits&lt;/font&gt;" style="rounded=0;whiteSpace=wrap;html=1;strokeWidth=2;fillColor=#E5F2FF;strokeColor=#000000;container=0;fontStyle=1;fontSize=14;align=left;spacingLeft=5;" vertex="1" parent="-yXsvrhgGh--1ZpngYir-104">
          <mxGeometry x="127.71059016093294" y="54.78934484916142" width="212.84313661302235" height="74.49363792522578" as="geometry" />
        </mxCell>
        <mxCell id="-yXsvrhgGh--1ZpngYir-92" value="&lt;div style=&quot;&quot;&gt;&lt;span style=&quot;background-color: initial;&quot;&gt;&lt;font face=&quot;Mina&quot;&gt;Roads, other traffic, pedestrians, customers&lt;/font&gt;&lt;/span&gt;&lt;/div&gt;" style="rounded=0;whiteSpace=wrap;html=1;strokeWidth=2;fillColor=#b8daff;strokeColor=#000000;container=0;fontStyle=1;fontSize=14;align=left;spacingLeft=5;" vertex="1" parent="-yXsvrhgGh--1ZpngYir-104">
          <mxGeometry x="127.71059016093294" y="129.2829827743872" width="212.84313661302235" height="63.85168965019353" as="geometry" />
        </mxCell>
        <mxCell id="-yXsvrhgGh--1ZpngYir-93" value="&lt;font face=&quot;Mina&quot;&gt;Steering wheel, accelerator, brake, signal, horn&lt;/font&gt;" style="rounded=0;whiteSpace=wrap;html=1;strokeWidth=2;fillColor=#E5F2FF;strokeColor=#000000;container=0;fontStyle=1;fontSize=14;align=left;spacingLeft=5;" vertex="1" parent="-yXsvrhgGh--1ZpngYir-104">
          <mxGeometry x="127.71059016093294" y="193.13467242458074" width="212.84313661302235" height="63.85168965019353" as="geometry" />
        </mxCell>
        <mxCell id="-yXsvrhgGh--1ZpngYir-94" value="&lt;font face=&quot;Mina&quot;&gt;Cameras, sonar, speedometer, GPS, odometer, engine sensors, keyboard&lt;/font&gt;" style="rounded=0;whiteSpace=wrap;html=1;strokeWidth=2;fillColor=#B8DAFF;strokeColor=#000000;container=0;fontStyle=1;fontSize=14;align=left;spacingLeft=5;spacingRight=4;" vertex="1" parent="-yXsvrhgGh--1ZpngYir-104">
          <mxGeometry x="127.71059016093294" y="256.98636207477426" width="212.84313661302235" height="74.49363792522578" as="geometry" />
        </mxCell>
        <mxCell id="-yXsvrhgGh--1ZpngYir-95" value="&lt;font face=&quot;Mina&quot;&gt;Percentage of parts in correct bins&lt;/font&gt;" style="rounded=0;whiteSpace=wrap;html=1;strokeWidth=2;fillColor=#E5F2FF;strokeColor=#000000;container=0;fontStyle=1;fontSize=14;align=left;spacingLeft=5;" vertex="1" parent="-yXsvrhgGh--1ZpngYir-104">
          <mxGeometry x="340.5537267739553" y="54.78934484916142" width="212.84313661302235" height="74.49363792522578" as="geometry" />
        </mxCell>
        <mxCell id="-yXsvrhgGh--1ZpngYir-96" value="&lt;font face=&quot;Mina&quot;&gt;Conveyor belt with parts, bins&lt;/font&gt;" style="rounded=0;whiteSpace=wrap;html=1;strokeWidth=2;fillColor=#b8daff;strokeColor=#000000;container=0;fontStyle=1;fontSize=14;align=left;spacingLeft=5;spacingRight=1;" vertex="1" parent="-yXsvrhgGh--1ZpngYir-104">
          <mxGeometry x="340.5537267739553" y="129.2829827743872" width="212.84313661302235" height="63.85168965019353" as="geometry" />
        </mxCell>
        <mxCell id="-yXsvrhgGh--1ZpngYir-97" value="&lt;font face=&quot;Mina&quot;&gt;Jointed arm and hand&lt;/font&gt;" style="rounded=0;whiteSpace=wrap;html=1;strokeWidth=2;fillColor=#E5F2FF;strokeColor=#000000;container=0;fontStyle=1;fontSize=14;align=left;spacingLeft=5;" vertex="1" parent="-yXsvrhgGh--1ZpngYir-104">
          <mxGeometry x="340.5537267739553" y="193.13467242458074" width="212.84313661302235" height="63.85168965019353" as="geometry" />
        </mxCell>
        <mxCell id="-yXsvrhgGh--1ZpngYir-98" value="&lt;font face=&quot;Mina&quot;&gt;Camera, joint angle sensors&lt;/font&gt;" style="rounded=0;whiteSpace=wrap;html=1;strokeWidth=2;fillColor=#B8DAFF;strokeColor=#000000;container=0;fontStyle=1;fontSize=14;align=left;spacingLeft=5;" vertex="1" parent="-yXsvrhgGh--1ZpngYir-104">
          <mxGeometry x="340.5537267739553" y="256.98636207477426" width="212.84313661302235" height="74.49363792522578" as="geometry" />
        </mxCell>
        <mxCell id="-yXsvrhgGh--1ZpngYir-99" value="&lt;font face=&quot;Mina&quot;&gt;Percentage of parts in correct bins&lt;/font&gt;" style="rounded=0;whiteSpace=wrap;html=1;strokeWidth=2;fillColor=#E5F2FF;strokeColor=#000000;container=0;fontStyle=1;fontSize=14;align=left;spacingLeft=5;" vertex="1" parent="-yXsvrhgGh--1ZpngYir-104">
          <mxGeometry x="553.3968633869777" y="54.78934484916142" width="212.84313661302235" height="74.49363792522578" as="geometry" />
        </mxCell>
        <mxCell id="-yXsvrhgGh--1ZpngYir-100" value="&lt;font face=&quot;Mina&quot;&gt;Set of students&lt;/font&gt;" style="rounded=0;whiteSpace=wrap;html=1;strokeWidth=2;fillColor=#b8daff;strokeColor=#000000;container=0;fontStyle=1;fontSize=14;align=left;spacingLeft=5;" vertex="1" parent="-yXsvrhgGh--1ZpngYir-104">
          <mxGeometry x="553.3968633869777" y="129.2829827743872" width="212.84313661302235" height="63.85168965019353" as="geometry" />
        </mxCell>
        <mxCell id="-yXsvrhgGh--1ZpngYir-101" value="&lt;font face=&quot;Mina&quot;&gt;Screen display (exercises, suggestions, corrections)&lt;/font&gt;" style="rounded=0;whiteSpace=wrap;html=1;strokeWidth=2;fillColor=#E5F2FF;strokeColor=#000000;container=0;fontStyle=1;fontSize=14;align=left;spacingLeft=5;" vertex="1" parent="-yXsvrhgGh--1ZpngYir-104">
          <mxGeometry x="553.3968633869777" y="193.13467242458074" width="212.84313661302235" height="63.85168965019353" as="geometry" />
        </mxCell>
        <mxCell id="-yXsvrhgGh--1ZpngYir-102" value="&lt;font face=&quot;Mina&quot;&gt;Keyboard, microphone&lt;/font&gt;" style="rounded=0;whiteSpace=wrap;html=1;strokeWidth=2;fillColor=#B8DAFF;strokeColor=#000000;container=0;fontStyle=1;fontSize=14;align=left;spacingLeft=5;" vertex="1" parent="-yXsvrhgGh--1ZpngYir-104">
          <mxGeometry x="553.3968633869777" y="256.98636207477426" width="212.84313661302235" height="74.49363792522578" as="geometry" />
        </mxCell>
        <mxCell id="-yXsvrhgGh--1ZpngYir-105" value="" style="group;flipH=0;" vertex="1" connectable="0" parent="1">
          <mxGeometry x="69" y="4030" width="690" height="100" as="geometry" />
        </mxCell>
        <mxCell id="-yXsvrhgGh--1ZpngYir-106" value="Anything that can be viewed as perceiving its environment through sensors and acting upon that environment through actuators" style="rounded=1;whiteSpace=wrap;html=1;hachureGap=4;fontFamily=Mina;strokeWidth=2;fillColor=#cdeb8b;strokeColor=#000000;fontSize=16;fontStyle=1;labelBorderColor=none;textShadow=0;labelBackgroundColor=none;align=left;spacing=7;verticalAlign=middle;" vertex="1" parent="-yXsvrhgGh--1ZpngYir-105">
          <mxGeometry y="40" width="690" height="60" as="geometry" />
        </mxCell>
        <mxCell id="-yXsvrhgGh--1ZpngYir-107" value="Agents" style="rounded=1;whiteSpace=wrap;html=1;hachureGap=4;fontFamily=Mina;strokeWidth=2;fillColor=#008a00;strokeColor=#000000;fontSize=22;fontStyle=1;labelBorderColor=none;textShadow=0;labelBackgroundColor=none;align=center;spacing=5;verticalAlign=middle;spacingTop=0;spacingRight=2;fontColor=#ffffff;" vertex="1" parent="-yXsvrhgGh--1ZpngYir-105">
          <mxGeometry x="20" width="100" height="40" as="geometry" />
        </mxCell>
        <mxCell id="-yXsvrhgGh--1ZpngYir-113" style="edgeStyle=orthogonalEdgeStyle;rounded=1;orthogonalLoop=1;jettySize=auto;html=1;strokeWidth=2;curved=0;" edge="1" parent="1" source="-yXsvrhgGh--1ZpngYir-108" target="-yXsvrhgGh--1ZpngYir-110">
          <mxGeometry relative="1" as="geometry" />
        </mxCell>
        <mxCell id="-yXsvrhgGh--1ZpngYir-114" style="edgeStyle=orthogonalEdgeStyle;rounded=1;orthogonalLoop=1;jettySize=auto;html=1;strokeWidth=2;curved=0;" edge="1" parent="1" source="-yXsvrhgGh--1ZpngYir-108" target="-yXsvrhgGh--1ZpngYir-109">
          <mxGeometry relative="1" as="geometry" />
        </mxCell>
        <mxCell id="-yXsvrhgGh--1ZpngYir-108" value="Types of Agents" style="rounded=1;whiteSpace=wrap;html=1;hachureGap=4;fontFamily=Mina;strokeWidth=2;fillColor=#008a00;strokeColor=#000000;fontSize=22;fontStyle=1;labelBorderColor=none;textShadow=0;labelBackgroundColor=none;align=center;spacing=5;verticalAlign=middle;spacingTop=0;spacingRight=2;fontColor=#ffffff;" vertex="1" parent="1">
          <mxGeometry x="318" y="4150" width="192" height="40" as="geometry" />
        </mxCell>
        <mxCell id="-yXsvrhgGh--1ZpngYir-109" value="Human Agent" style="rounded=1;whiteSpace=wrap;html=1;hachureGap=4;fontFamily=Mina;strokeWidth=2;fillColor=#008a00;strokeColor=#000000;fontSize=22;fontStyle=1;labelBorderColor=none;textShadow=0;labelBackgroundColor=none;align=center;spacing=5;verticalAlign=middle;spacingTop=0;spacingRight=2;fontColor=#ffffff;" vertex="1" parent="1">
          <mxGeometry x="124" y="4210" width="156.06" height="40" as="geometry" />
        </mxCell>
        <mxCell id="-yXsvrhgGh--1ZpngYir-110" value="Robotic Agent" style="rounded=1;whiteSpace=wrap;html=1;hachureGap=4;fontFamily=Mina;strokeWidth=2;fillColor=#008a00;strokeColor=#000000;fontSize=22;fontStyle=1;labelBorderColor=none;textShadow=0;labelBackgroundColor=none;align=center;spacing=5;verticalAlign=middle;spacingTop=0;spacingRight=2;fontColor=#ffffff;" vertex="1" parent="1">
          <mxGeometry x="540.06" y="4210" width="163.94" height="40" as="geometry" />
        </mxCell>
        <mxCell id="-yXsvrhgGh--1ZpngYir-111" value="&lt;div style=&quot;line-height: 120%;&quot;&gt;&lt;ul style=&quot;line-height: 120%;&quot;&gt;&lt;li&gt;Eyes, ears, and other organs for sensors&lt;/li&gt;&lt;/ul&gt;&lt;ul style=&quot;line-height: 120%;&quot;&gt;&lt;li&gt;Hands, legs, mouth, and other body parts for actuators&lt;/li&gt;&lt;/ul&gt;&lt;/div&gt;" style="rounded=1;whiteSpace=wrap;html=1;hachureGap=4;fontFamily=Mina;strokeWidth=2;fillColor=#cdeb8b;strokeColor=#000000;fontSize=16;fontStyle=1;labelBorderColor=none;textShadow=0;labelBackgroundColor=none;align=left;spacing=7;verticalAlign=middle;spacingLeft=-23;" vertex="1" parent="1">
          <mxGeometry x="77.03" y="4250" width="250" height="120" as="geometry" />
        </mxCell>
        <mxCell id="-yXsvrhgGh--1ZpngYir-112" value="&lt;div&gt;&lt;ul&gt;&lt;li&gt;Cameras and infrared range finders for sensors&lt;/li&gt;&lt;/ul&gt;&lt;ul&gt;&lt;li&gt;&lt;span style=&quot;background-color: initial;&quot;&gt;Various motors for actuators&lt;/span&gt;&lt;/li&gt;&lt;/ul&gt;&lt;/div&gt;" style="rounded=1;whiteSpace=wrap;html=1;hachureGap=4;fontFamily=Mina;strokeWidth=2;fillColor=#cdeb8b;strokeColor=#000000;fontSize=16;fontStyle=1;labelBorderColor=none;textShadow=0;labelBackgroundColor=none;align=left;spacing=7;verticalAlign=middle;spacingLeft=-22;" vertex="1" parent="1">
          <mxGeometry x="497.03" y="4250" width="250" height="120" as="geometry" />
        </mxCell>
        <mxCell id="-yXsvrhgGh--1ZpngYir-124" value="Rational Agent" style="rounded=1;whiteSpace=wrap;html=1;hachureGap=4;fontFamily=Mina;strokeWidth=2;fillColor=#0050ef;strokeColor=#000000;fontSize=22;fontStyle=1;labelBorderColor=none;textShadow=0;labelBackgroundColor=none;align=center;spacing=5;verticalAlign=middle;spacingTop=3;spacingRight=2;fontColor=#ffffff;" vertex="1" parent="1">
          <mxGeometry x="460" y="4430" width="170" height="40" as="geometry" />
        </mxCell>
        <mxCell id="-yXsvrhgGh--1ZpngYir-125" value="" style="group" vertex="1" connectable="0" parent="1">
          <mxGeometry x="40" y="4420" width="310" height="200" as="geometry" />
        </mxCell>
        <mxCell id="-yXsvrhgGh--1ZpngYir-121" value="Agents prior knowledge of environment" style="rounded=1;whiteSpace=wrap;html=1;hachureGap=4;fontFamily=Mina;strokeWidth=2;fillColor=#ffcccc;strokeColor=#000000;fontSize=16;fontStyle=1;labelBorderColor=none;textShadow=0;labelBackgroundColor=none;align=left;spacing=7;verticalAlign=middle;" vertex="1" parent="-yXsvrhgGh--1ZpngYir-125">
          <mxGeometry y="80" width="310" height="40" as="geometry" />
        </mxCell>
        <mxCell id="-yXsvrhgGh--1ZpngYir-122" value="Actions that agent can perform" style="rounded=1;whiteSpace=wrap;html=1;hachureGap=4;fontFamily=Mina;strokeWidth=2;fillColor=#ffcccc;strokeColor=#000000;fontSize=16;fontStyle=1;labelBorderColor=none;textShadow=0;labelBackgroundColor=none;align=left;spacing=7;verticalAlign=middle;" vertex="1" parent="-yXsvrhgGh--1ZpngYir-125">
          <mxGeometry y="120" width="250" height="40" as="geometry" />
        </mxCell>
        <mxCell id="-yXsvrhgGh--1ZpngYir-123" value="Agent’s percept sequence to date" style="rounded=1;whiteSpace=wrap;html=1;hachureGap=4;fontFamily=Mina;strokeWidth=2;fillColor=#ffcccc;strokeColor=#000000;fontSize=16;fontStyle=1;labelBorderColor=none;textShadow=0;labelBackgroundColor=none;align=left;spacing=7;verticalAlign=middle;" vertex="1" parent="-yXsvrhgGh--1ZpngYir-125">
          <mxGeometry y="160" width="260" height="40" as="geometry" />
        </mxCell>
        <mxCell id="-yXsvrhgGh--1ZpngYir-119" value="&lt;div&gt;Performance measuring success&lt;/div&gt;" style="rounded=1;whiteSpace=wrap;html=1;hachureGap=4;fontFamily=Mina;strokeWidth=2;fillColor=#ffcccc;strokeColor=#000000;fontSize=16;fontStyle=1;labelBorderColor=none;textShadow=0;labelBackgroundColor=none;align=left;spacing=7;verticalAlign=middle;" vertex="1" parent="-yXsvrhgGh--1ZpngYir-125">
          <mxGeometry y="40" width="250" height="40" as="geometry" />
        </mxCell>
        <mxCell id="-yXsvrhgGh--1ZpngYir-120" value="Rationality" style="rounded=1;whiteSpace=wrap;html=1;hachureGap=4;fontFamily=Mina;strokeWidth=2;fillColor=#e51400;strokeColor=#000000;fontSize=22;fontStyle=1;labelBorderColor=none;textShadow=0;labelBackgroundColor=none;align=center;spacing=5;verticalAlign=middle;spacingTop=3;spacingRight=2;fontColor=#ffffff;" vertex="1" parent="-yXsvrhgGh--1ZpngYir-125">
          <mxGeometry x="20" width="130" height="40" as="geometry" />
        </mxCell>
        <mxCell id="-yXsvrhgGh--1ZpngYir-126" value="&lt;div&gt;For each possible percept sequence, a rational agent should select an action that is expected to maximize its performance measure, given the evidence provided by the percept sequence and whatever built-in knowledge the agent has.&lt;/div&gt;" style="rounded=1;whiteSpace=wrap;html=1;hachureGap=4;fontFamily=Mina;strokeWidth=2;fillColor=#cce5ff;strokeColor=#000000;fontSize=16;fontStyle=1;labelBorderColor=none;textShadow=0;labelBackgroundColor=none;align=left;spacing=7;verticalAlign=middle;arcSize=11;" vertex="1" parent="1">
          <mxGeometry x="430" y="4470" width="340" height="140" as="geometry" />
        </mxCell>
        <mxCell id="-yXsvrhgGh--1ZpngYir-128" value="&lt;ul&gt;&lt;li&gt;Rational is different from omniscience&lt;/li&gt;&lt;/ul&gt;&lt;ul&gt;&lt;li&gt;Percepts may not supply all relevant information&lt;/li&gt;&lt;/ul&gt;&lt;ul&gt;&lt;li&gt;E.g., in card game, don’t know cards of others.&lt;br&gt;&lt;/li&gt;&lt;/ul&gt;" style="rounded=1;whiteSpace=wrap;html=1;hachureGap=4;fontFamily=Mina;strokeWidth=2;fillColor=#ffff88;strokeColor=#000000;fontSize=16;fontStyle=1;labelBorderColor=none;textShadow=0;labelBackgroundColor=none;align=left;spacing=7;verticalAlign=middle;spacingLeft=-22;" vertex="1" parent="1">
          <mxGeometry x="48" y="4700" width="312" height="160" as="geometry" />
        </mxCell>
        <mxCell id="-yXsvrhgGh--1ZpngYir-130" value="&lt;ul&gt;&lt;li&gt;Rational is different from being perfect&lt;/li&gt;&lt;/ul&gt;&lt;ul&gt;&lt;li&gt;Rationality maximizes expected outcome while perfection maximizes actual outcome.&lt;/li&gt;&lt;/ul&gt;" style="rounded=1;whiteSpace=wrap;html=1;hachureGap=4;fontFamily=Mina;strokeWidth=2;fillColor=#ffff88;strokeColor=#000000;fontSize=16;fontStyle=1;labelBorderColor=none;textShadow=0;labelBackgroundColor=none;align=left;spacing=7;verticalAlign=middle;spacingLeft=-22;" vertex="1" parent="1">
          <mxGeometry x="468" y="4700" width="312" height="150" as="geometry" />
        </mxCell>
        <mxCell id="-yXsvrhgGh--1ZpngYir-131" value="" style="group" vertex="1" connectable="0" parent="1">
          <mxGeometry x="84" y="4900" width="660" height="260" as="geometry" />
        </mxCell>
        <mxCell id="-yXsvrhgGh--1ZpngYir-132" value="&lt;div&gt;The autonomy of an agent is the extent to which its behaviour is determined by its own experience, rather than knowledge of designer.&lt;/div&gt;&lt;div&gt;&lt;br&gt;&lt;/div&gt;&lt;div style=&quot;&quot;&gt;&lt;font style=&quot;font-size: 20px;&quot;&gt;Extremes:&lt;/font&gt;&lt;span style=&quot;font-size: 18px; background-color: initial; white-space: pre;&quot;&gt;&#x9;&lt;/span&gt;&lt;/div&gt;&lt;div style=&quot;&quot;&gt;&lt;ul style=&quot;font-size: 17px;&quot;&gt;&lt;li&gt;No autonomy – ignores environment/data&lt;br&gt;&lt;/li&gt;&lt;li&gt;Complete autonomy – must act randomly/no program&lt;/li&gt;&lt;/ul&gt;&lt;font style=&quot;font-size: 20px;&quot;&gt;Example:&lt;/font&gt;&lt;span style=&quot;font-size: 17px;&quot;&gt;&amp;nbsp;baby learning to crawl&lt;/span&gt;&lt;br&gt;&lt;font style=&quot;font-size: 21px;&quot;&gt;Ideal:&lt;/font&gt;&lt;span style=&quot;font-size: 17px;&quot;&gt; design agents to have some autonomy&lt;/span&gt;&lt;br&gt;&lt;/div&gt;" style="rounded=1;whiteSpace=wrap;html=1;hachureGap=4;fontFamily=Mina;strokeWidth=2;fillColor=#cce5ff;strokeColor=#000000;fontSize=16;fontStyle=1;labelBorderColor=none;textShadow=0;labelBackgroundColor=none;align=left;spacing=7;verticalAlign=middle;spacingLeft=5;spacingRight=3;arcSize=6;" vertex="1" parent="-yXsvrhgGh--1ZpngYir-131">
          <mxGeometry y="40" width="660" height="220" as="geometry" />
        </mxCell>
        <mxCell id="-yXsvrhgGh--1ZpngYir-133" value="Autonomy in Agents" style="rounded=1;whiteSpace=wrap;html=1;hachureGap=4;fontFamily=Mina;strokeWidth=2;fillColor=#0050ef;strokeColor=#000000;fontSize=22;fontStyle=1;labelBorderColor=none;textShadow=0;labelBackgroundColor=none;align=center;spacing=5;verticalAlign=middle;spacingTop=3;spacingRight=2;fontColor=#ffffff;" vertex="1" parent="-yXsvrhgGh--1ZpngYir-131">
          <mxGeometry x="20" width="230" height="40" as="geometry" />
        </mxCell>
      </root>
    </mxGraphModel>
  </diagram>
</mxfile>
